<svg xmlns="http://www.w3.org/2000/svg" xmlns:xlink="http://www.w3.org/1999/xlink" width="500" zoomAndPan="magnify" viewBox="0 0 375 374.999991" height="500" preserveAspectRatio="xMidYMid meet" version="1.0"><defs><filter x="0%" y="0%" width="100%" height="100%" id="81ff24da79"><feColorMatrix values="0 0 0 0 1 0 0 0 0 1 0 0 0 0 1 0 0 0 1 0" color-interpolation-filters="sRGB"/></filter><g/><clipPath id="043858eb34"><path d="M 161.140625 111.976562 L 291.640625 111.976562 L 291.640625 252.976562 L 161.140625 252.976562 Z M 161.140625 111.976562 " clip-rule="nonzero"/></clipPath><clipPath id="f39f18bca6"><path d="M 86.117188 124.445312 L 288.617188 124.445312 L 288.617188 207.695312 L 86.117188 207.695312 Z M 86.117188 124.445312 " clip-rule="nonzero"/></clipPath><clipPath id="487c918cd7"><path d="M 142.121094 122.175781 L 163.871094 122.175781 L 163.871094 143.925781 L 142.121094 143.925781 Z M 142.121094 122.175781 " clip-rule="nonzero"/></clipPath><clipPath id="84160fd6ca"><path d="M 143 123 L 163 123 L 163 143.925781 L 143 143.925781 Z M 143 123 " clip-rule="nonzero"/></clipPath><mask id="a2f15526df"><g filter="url(#81ff24da79)"><rect x="-37.5" width="450" fill="#000000" y="-37.499999" height="449.999989" fill-opacity="0.059"/></g></mask><clipPath id="928546abc9"><path d="M 0.28125 1 L 19.71875 1 L 19.71875 20 L 0.28125 20 Z M 0.28125 1 " clip-rule="nonzero"/></clipPath><clipPath id="2fdd6f1a61"><rect x="0" width="20" y="0" height="21"/></clipPath><clipPath id="cfbfa492f6"><path d="M 98.015625 140.777344 L 115.265625 140.777344 L 115.265625 158 L 98.015625 158 Z M 98.015625 140.777344 " clip-rule="nonzero"/></clipPath><clipPath id="4a3e14abb5"><path d="M 98.015625 142 L 115 142 L 115 158 L 98.015625 158 Z M 98.015625 142 " clip-rule="nonzero"/></clipPath><mask id="d5a0c9aa7f"><g filter="url(#81ff24da79)"><rect x="-37.5" width="450" fill="#000000" y="-37.499999" height="449.999989" fill-opacity="0.059"/></g></mask><clipPath id="c868b09d0c"><path d="M 1 0.078125 L 16 0.078125 L 16 15.441406 L 1 15.441406 Z M 1 0.078125 " clip-rule="nonzero"/></clipPath><clipPath id="878cc9637a"><rect x="0" width="17" y="0" height="16"/></clipPath><clipPath id="9a5bc77869"><path d="M 211.050781 122.175781 L 232.800781 122.175781 L 232.800781 143.925781 L 211.050781 143.925781 Z M 211.050781 122.175781 " clip-rule="nonzero"/></clipPath><clipPath id="48997f68e0"><path d="M 212 123 L 232 123 L 232 143.925781 L 212 143.925781 Z M 212 123 " clip-rule="nonzero"/></clipPath><mask id="8fea33a7c8"><g filter="url(#81ff24da79)"><rect x="-37.5" width="450" fill="#000000" y="-37.499999" height="449.999989" fill-opacity="0.059"/></g></mask><clipPath id="530cdd98a8"><path d="M 0.160156 1 L 19.601562 1 L 19.601562 20 L 0.160156 20 Z M 0.160156 1 " clip-rule="nonzero"/></clipPath><clipPath id="17aa6b17e5"><rect x="0" width="20" y="0" height="21"/></clipPath><clipPath id="0cc477674b"><path d="M 259.75 140.777344 L 277 140.777344 L 277 158 L 259.75 158 Z M 259.75 140.777344 " clip-rule="nonzero"/></clipPath><mask id="ba1f722eea"><g filter="url(#81ff24da79)"><rect x="-37.5" width="450" fill="#000000" y="-37.499999" height="449.999989" fill-opacity="0.059"/></g></mask><clipPath id="c81bc67a4d"><path d="M 0.640625 0.078125 L 16 0.078125 L 16 15.441406 L 0.640625 15.441406 Z M 0.640625 0.078125 " clip-rule="nonzero"/></clipPath><clipPath id="154c6a1a74"><rect x="0" width="16" y="0" height="16"/></clipPath><clipPath id="d279d4f441"><path d="M 211.050781 122.175781 L 232.800781 122.175781 L 232.800781 143.925781 L 211.050781 143.925781 Z M 211.050781 122.175781 " clip-rule="nonzero"/></clipPath><clipPath id="ed4c292c6e"><path d="M 212 123 L 232 123 L 232 143.925781 L 212 143.925781 Z M 212 123 " clip-rule="nonzero"/></clipPath><mask id="a6d6d7ad26"><g filter="url(#81ff24da79)"><rect x="-37.5" width="450" fill="#000000" y="-37.499999" height="449.999989" fill-opacity="0.059"/></g></mask><clipPath id="1283dbda27"><path d="M 0.160156 1 L 19.601562 1 L 19.601562 20 L 0.160156 20 Z M 0.160156 1 " clip-rule="nonzero"/></clipPath><clipPath id="bdc7732c4e"><rect x="0" width="20" y="0" height="21"/></clipPath></defs><g clip-path="url(#043858eb34)"><path fill="#5cb6c6" d="M 161.546875 111.992188 L 161.648438 113.484375 C 162.316406 123.921875 164.703125 130.535156 168.816406 133.332031 C 171.089844 135.445312 174.375 137.542969 178.671875 139.621094 L 197.503906 147.585938 L 202.496094 150.015625 C 205.601562 151.652344 207.429688 153.285156 207.988281 154.917969 C 208.34375 156.53125 207.042969 158.148438 204.09375 159.769531 L 182.78125 169.648438 C 180.5625 170.769531 178.472656 171.96875 176.519531 173.246094 C 172.652344 175.839844 169.539062 178.683594 167.175781 181.78125 C 163.636719 186.488281 161.753906 191.25 161.535156 196.066406 C 161.273438 196.90625 161.566406 199.175781 162.417969 202.875 C 163.367188 205.753906 164.960938 208.453125 167.207031 210.976562 C 169.625 214.226562 175.183594 218.207031 183.878906 222.914062 C 186.148438 224.3125 196.664062 228.84375 215.417969 236.507812 C 219.515625 238.46875 221.738281 239.625 222.082031 239.976562 C 227.214844 243.3125 229.839844 247.089844 229.960938 251.304688 L 291.648438 252.867188 C 279.515625 238.003906 265.28125 226.351562 248.9375 217.910156 C 241.347656 214.125 234.609375 211.640625 228.722656 210.460938 C 226.441406 209.75 218.296875 208.6875 204.300781 207.277344 C 199.898438 206.480469 197.339844 205.90625 196.625 205.554688 C 193.917969 205.046875 190.625 203.070312 186.746094 199.628906 C 182.5 195.023438 181.980469 190.859375 185.195312 187.136719 C 185.273438 186.570312 187.285156 185.640625 191.226562 184.339844 C 192.546875 183.835938 198.976562 182.820312 210.519531 181.300781 L 217.085938 179.921875 C 222.003906 178.304688 224.703125 177.152344 225.175781 176.464844 C 228.101562 174.410156 230.164062 171.953125 231.359375 169.101562 C 232.683594 166.953125 232.976562 163.351562 232.246094 158.292969 C 230.675781 152.707031 226.8125 148.476562 220.667969 145.605469 C 217.671875 144.121094 214.355469 142.808594 210.707031 141.667969 L 182.289062 133.503906 C 178.796875 132.316406 175.777344 130.960938 173.234375 129.449219 C 167.859375 126.519531 163.964844 120.699219 161.546875 111.992188 " fill-opacity="0.969" fill-rule="nonzero"/></g><g clip-path="url(#f39f18bca6)"><path fill="#004aad" d="M 93.945312 207.316406 L 133.113281 207.316406 C 133.113281 207.316406 117.441406 192.839844 118.414062 182.035156 C 122.125 166.910156 137.796875 168.472656 142.722656 183.25 C 144.953125 189.921875 145.664062 199.429688 145.824219 207.316406 L 163.421875 207.316406 C 162.914062 196.894531 163.238281 185.074219 166.015625 176.539062 C 173.273438 154.359375 201.71875 154.359375 208.976562 176.539062 C 212.929688 188.625 204.113281 199.347656 195.476562 207.316406 L 234.644531 207.316406 C 220.085938 174.230469 252.261719 159.265625 256.863281 183.25 C 258.140625 189.921875 257.511719 199.429688 256.539062 207.316406 L 272.3125 207.316406 C 273.304688 201.921875 274.625 196.125 276.347656 191.828125 C 280.644531 180.980469 285.632812 182.542969 285.632812 182.542969 C 285.632812 182.542969 287.335938 182.074219 288.875 183.453125 L 288.875 177.046875 C 219.257812 139.863281 156.832031 139.277344 86.117188 177.066406 L 86.117188 183.472656 C 99.335938 176.703125 98.242188 197.542969 93.945312 207.316406 Z M 106.796875 143.332031 C 110.589844 143.332031 113.671875 146.414062 113.671875 150.203125 C 113.671875 153.996094 110.589844 157.078125 106.796875 157.078125 C 103.007812 157.078125 99.925781 153.996094 99.925781 150.203125 C 99.925781 146.414062 103.007812 143.332031 106.796875 143.332031 Z M 268.175781 143.332031 C 271.96875 143.332031 275.050781 146.414062 275.050781 150.203125 C 275.050781 153.996094 271.96875 157.078125 268.175781 157.078125 C 264.386719 157.078125 261.304688 153.996094 261.304688 150.203125 C 261.304688 146.414062 264.386719 143.332031 268.175781 143.332031 Z M 152.878906 124.496094 C 158.210938 124.496094 162.53125 128.816406 162.53125 134.148438 C 162.53125 139.480469 158.210938 143.796875 152.878906 143.796875 C 147.546875 143.796875 143.230469 139.480469 143.230469 134.148438 C 143.230469 128.816406 147.566406 124.496094 152.878906 124.496094 Z M 222.09375 124.496094 C 227.425781 124.496094 231.746094 128.816406 231.746094 134.148438 C 231.746094 139.480469 227.425781 143.796875 222.09375 143.796875 C 216.761719 143.796875 212.445312 139.480469 212.445312 134.148438 C 212.445312 128.816406 216.761719 124.496094 222.09375 124.496094 Z M 222.09375 124.496094 " fill-opacity="1" fill-rule="evenodd"/></g><g clip-path="url(#487c918cd7)"><path fill="#ffffff" d="M 163.8125 133.023438 C 163.8125 133.734375 163.742188 134.441406 163.605469 135.136719 C 163.464844 135.835938 163.257812 136.515625 162.988281 137.171875 C 162.714844 137.832031 162.378906 138.457031 161.984375 139.046875 C 161.589844 139.640625 161.140625 140.1875 160.636719 140.691406 C 160.132812 141.195312 159.585938 141.644531 158.992188 142.039062 C 158.398438 142.4375 157.773438 142.769531 157.117188 143.042969 C 156.460938 143.316406 155.78125 143.519531 155.082031 143.660156 C 154.382812 143.800781 153.679688 143.867188 152.964844 143.867188 C 152.253906 143.867188 151.550781 143.800781 150.851562 143.660156 C 150.152344 143.519531 149.472656 143.316406 148.816406 143.042969 C 148.15625 142.769531 147.53125 142.4375 146.941406 142.039062 C 146.347656 141.644531 145.800781 141.195312 145.296875 140.691406 C 144.792969 140.1875 144.34375 139.640625 143.949219 139.046875 C 143.550781 138.457031 143.21875 137.832031 142.945312 137.171875 C 142.671875 136.515625 142.46875 135.835938 142.328125 135.136719 C 142.191406 134.441406 142.121094 133.734375 142.121094 133.023438 C 142.121094 132.308594 142.191406 131.605469 142.328125 130.90625 C 142.46875 130.207031 142.671875 129.53125 142.945312 128.871094 C 143.21875 128.214844 143.550781 127.589844 143.949219 126.996094 C 144.34375 126.40625 144.792969 125.855469 145.296875 125.351562 C 145.800781 124.847656 146.347656 124.398438 146.941406 124.003906 C 147.53125 123.609375 148.15625 123.273438 148.816406 123.003906 C 149.472656 122.730469 150.152344 122.523438 150.851562 122.382812 C 151.550781 122.246094 152.253906 122.175781 152.964844 122.175781 C 153.679688 122.175781 154.382812 122.246094 155.082031 122.382812 C 155.78125 122.523438 156.460938 122.730469 157.117188 123.003906 C 157.773438 123.273438 158.398438 123.609375 158.992188 124.003906 C 159.585938 124.398438 160.132812 124.847656 160.636719 125.351562 C 161.140625 125.855469 161.589844 126.40625 161.984375 126.996094 C 162.378906 127.589844 162.714844 128.214844 162.988281 128.871094 C 163.257812 129.53125 163.464844 130.207031 163.605469 130.90625 C 163.742188 131.605469 163.8125 132.308594 163.8125 133.023438 Z M 163.8125 133.023438 " fill-opacity="1" fill-rule="nonzero"/></g><g clip-path="url(#84160fd6ca)"><g mask="url(#a2f15526df)"><g transform="matrix(1, 0, 0, 1, 143, 123)"><g clip-path="url(#2fdd6f1a61)"><g clip-path="url(#928546abc9)"><path fill="#000000" d="M 19.238281 10.558594 C 19.238281 11.167969 19.175781 11.769531 19.058594 12.367188 C 18.941406 12.964844 18.761719 13.542969 18.53125 14.105469 C 18.296875 14.667969 18.011719 15.203125 17.675781 15.707031 C 17.335938 16.214844 16.953125 16.683594 16.519531 17.113281 C 16.089844 17.542969 15.621094 17.925781 15.117188 18.265625 C 14.609375 18.605469 14.078125 18.890625 13.515625 19.121094 C 12.953125 19.355469 12.371094 19.53125 11.773438 19.648438 C 11.179688 19.769531 10.574219 19.828125 9.964844 19.828125 C 9.359375 19.828125 8.753906 19.769531 8.15625 19.648438 C 7.5625 19.53125 6.980469 19.355469 6.417969 19.121094 C 5.855469 18.890625 5.324219 18.605469 4.816406 18.265625 C 4.308594 17.925781 3.84375 17.542969 3.410156 17.113281 C 2.980469 16.683594 2.597656 16.214844 2.257812 15.707031 C 1.921875 15.203125 1.636719 14.667969 1.402344 14.105469 C 1.167969 13.542969 0.992188 12.964844 0.875 12.367188 C 0.757812 11.769531 0.695312 11.167969 0.695312 10.558594 C 0.695312 9.949219 0.757812 9.347656 0.875 8.75 C 0.992188 8.152344 1.167969 7.574219 1.402344 7.011719 C 1.636719 6.449219 1.921875 5.914062 2.257812 5.40625 C 2.597656 4.902344 2.980469 4.433594 3.410156 4.003906 C 3.84375 3.574219 4.308594 3.1875 4.816406 2.851562 C 5.324219 2.511719 5.855469 2.226562 6.417969 1.992188 C 6.980469 1.761719 7.5625 1.585938 8.15625 1.464844 C 8.753906 1.347656 9.359375 1.289062 9.964844 1.289062 C 10.574219 1.289062 11.179688 1.347656 11.773438 1.464844 C 12.371094 1.585938 12.953125 1.761719 13.515625 1.992188 C 14.078125 2.226562 14.609375 2.511719 15.117188 2.851562 C 15.621094 3.1875 16.089844 3.574219 16.519531 4.003906 C 16.953125 4.433594 17.335938 4.902344 17.675781 5.40625 C 18.011719 5.914062 18.296875 6.449219 18.53125 7.011719 C 18.761719 7.574219 18.941406 8.152344 19.058594 8.75 C 19.175781 9.347656 19.238281 9.949219 19.238281 10.558594 Z M 19.238281 10.558594 " fill-opacity="1" fill-rule="nonzero"/></g></g></g></g></g><path fill="#dd7631" d="M 161.871094 133.023438 C 161.871094 133.605469 161.816406 134.1875 161.703125 134.761719 C 161.585938 135.332031 161.417969 135.890625 161.195312 136.429688 C 160.972656 136.972656 160.695312 137.484375 160.371094 137.96875 C 160.046875 138.457031 159.675781 138.90625 159.265625 139.320312 C 158.851562 139.734375 158.402344 140.101562 157.914062 140.425781 C 157.429688 140.753906 156.914062 141.027344 156.375 141.25 C 155.835938 141.472656 155.277344 141.644531 154.703125 141.757812 C 154.128906 141.871094 153.550781 141.929688 152.964844 141.929688 C 152.382812 141.929688 151.800781 141.871094 151.230469 141.757812 C 150.65625 141.644531 150.097656 141.472656 149.558594 141.25 C 149.019531 141.027344 148.503906 140.753906 148.019531 140.425781 C 147.53125 140.101562 147.082031 139.734375 146.667969 139.320312 C 146.253906 138.90625 145.886719 138.457031 145.5625 137.96875 C 145.238281 137.484375 144.960938 136.972656 144.738281 136.429688 C 144.515625 135.890625 144.34375 135.332031 144.230469 134.761719 C 144.117188 134.1875 144.058594 133.605469 144.058594 133.023438 C 144.058594 132.4375 144.117188 131.859375 144.230469 131.285156 C 144.34375 130.710938 144.515625 130.15625 144.738281 129.613281 C 144.960938 129.074219 145.238281 128.5625 145.5625 128.074219 C 145.886719 127.589844 146.253906 127.136719 146.667969 126.726562 C 147.082031 126.3125 147.53125 125.941406 148.019531 125.617188 C 148.503906 125.292969 149.019531 125.019531 149.558594 124.792969 C 150.097656 124.570312 150.65625 124.402344 151.230469 124.289062 C 151.800781 124.171875 152.382812 124.117188 152.964844 124.117188 C 153.550781 124.117188 154.128906 124.171875 154.703125 124.289062 C 155.277344 124.402344 155.835938 124.570312 156.375 124.792969 C 156.914062 125.019531 157.429688 125.292969 157.914062 125.617188 C 158.402344 125.941406 158.851562 126.3125 159.265625 126.726562 C 159.675781 127.136719 160.046875 127.589844 160.371094 128.074219 C 160.695312 128.5625 160.972656 129.074219 161.195312 129.613281 C 161.417969 130.15625 161.585938 130.710938 161.703125 131.285156 C 161.816406 131.859375 161.871094 132.4375 161.871094 133.023438 Z M 161.871094 133.023438 " fill-opacity="1" fill-rule="nonzero"/><path fill="#13548f" d="M 144.757812 136.472656 C 144.863281 136.726562 144.980469 136.976562 145.113281 137.222656 C 145.25 137.476562 145.398438 137.726562 145.5625 137.96875 C 145.722656 138.210938 145.898438 138.445312 146.082031 138.671875 C 146.265625 138.898438 146.460938 139.113281 146.667969 139.320312 C 146.875 139.527344 147.089844 139.722656 147.316406 139.90625 C 147.542969 140.09375 147.777344 140.265625 148.019531 140.425781 C 148.261719 140.589844 148.511719 140.738281 148.769531 140.875 C 149.023438 141.015625 149.289062 141.140625 149.558594 141.25 C 149.828125 141.363281 150.101562 141.460938 150.382812 141.546875 C 150.660156 141.628906 150.941406 141.699219 151.230469 141.757812 C 151.515625 141.8125 151.804688 141.855469 152.09375 141.886719 C 152.382812 141.914062 152.675781 141.929688 152.964844 141.929688 C 153.066406 141.929688 153.164062 141.925781 153.265625 141.921875 C 153.363281 141.921875 153.460938 141.914062 153.5625 141.910156 C 153.660156 141.902344 153.757812 141.894531 153.859375 141.882812 C 153.957031 141.875 154.054688 141.863281 154.152344 141.847656 C 154.25 141.835938 154.351562 141.820312 154.449219 141.804688 C 154.546875 141.789062 154.644531 141.769531 154.742188 141.75 C 154.835938 141.730469 154.933594 141.710938 155.03125 141.6875 C 155.128906 141.664062 155.222656 141.636719 155.320312 141.613281 C 155.414062 141.585938 155.511719 141.558594 155.605469 141.527344 C 155.699219 141.5 155.792969 141.46875 155.886719 141.4375 C 155.980469 141.402344 156.074219 141.371094 156.167969 141.332031 C 156.261719 141.296875 156.351562 141.261719 156.441406 141.222656 C 156.535156 141.183594 156.625 141.144531 156.714844 141.101562 C 156.804688 141.058594 156.894531 141.015625 156.984375 140.972656 C 157.070312 140.925781 157.160156 140.878906 157.246094 140.832031 C 157.332031 140.785156 157.417969 140.734375 157.503906 140.683594 C 157.589844 140.632812 157.675781 140.582031 157.757812 140.53125 C 157.84375 140.476562 157.925781 140.421875 158.007812 140.363281 C 158.089844 140.308594 158.167969 140.25 158.25 140.191406 C 158.328125 140.132812 158.410156 140.074219 158.484375 140.011719 C 158.5625 139.949219 158.640625 139.886719 158.714844 139.824219 C 158.792969 139.757812 158.867188 139.695312 158.941406 139.628906 C 159.015625 139.5625 159.085938 139.492188 159.15625 139.425781 C 159.230469 139.355469 159.300781 139.285156 159.367188 139.214844 C 159.4375 139.144531 159.503906 139.070312 159.570312 138.996094 C 159.636719 138.921875 159.703125 138.847656 159.769531 138.773438 C 159.832031 138.695312 159.894531 138.621094 159.957031 138.542969 C 160.019531 138.464844 160.078125 138.386719 160.136719 138.304688 C 160.195312 138.226562 160.253906 138.144531 160.308594 138.0625 C 160.367188 137.980469 160.421875 137.898438 160.472656 137.816406 C 160.527344 137.730469 160.578125 137.648438 160.628906 137.5625 C 160.679688 137.476562 160.730469 137.390625 160.777344 137.300781 C 160.824219 137.214844 160.871094 137.128906 160.914062 137.039062 C 160.960938 136.949219 161.003906 136.859375 161.046875 136.769531 C 161.085938 136.679688 161.128906 136.589844 161.164062 136.5 C 161.203125 136.40625 161.242188 136.316406 161.277344 136.222656 C 161.3125 136.128906 161.347656 136.039062 161.378906 135.945312 C 161.414062 135.851562 161.445312 135.753906 161.472656 135.660156 C 161.503906 135.566406 161.53125 135.472656 161.554688 135.375 C 161.582031 135.28125 161.605469 135.183594 161.628906 135.085938 C 161.652344 134.992188 161.675781 134.894531 161.695312 134.796875 C 161.714844 134.699219 161.730469 134.601562 161.75 134.503906 C 161.765625 134.40625 161.78125 134.308594 161.792969 134.210938 C 161.804688 134.109375 161.816406 134.011719 161.828125 133.914062 C 161.835938 133.816406 161.847656 133.714844 161.851562 133.617188 C 161.859375 133.519531 161.863281 133.417969 161.867188 133.320312 C 161.871094 133.222656 161.871094 133.121094 161.871094 133.023438 C 161.871094 132.921875 161.871094 132.824219 161.867188 132.726562 C 161.863281 132.625 161.859375 132.527344 161.851562 132.425781 C 161.847656 132.328125 161.835938 132.230469 161.828125 132.132812 C 161.816406 132.03125 161.804688 131.933594 161.792969 131.835938 C 161.78125 131.738281 161.765625 131.640625 161.75 131.542969 C 161.730469 131.441406 161.714844 131.347656 161.695312 131.25 C 161.675781 131.152344 161.652344 131.054688 161.628906 130.957031 C 161.605469 130.863281 161.582031 130.765625 161.554688 130.667969 C 161.53125 130.574219 161.503906 130.480469 161.472656 130.382812 C 161.445312 130.289062 161.414062 130.195312 161.378906 130.101562 C 161.347656 130.007812 161.3125 129.914062 161.277344 129.820312 C 161.242188 129.730469 161.203125 129.636719 161.164062 129.546875 C 161.128906 129.453125 161.085938 129.363281 161.046875 129.273438 C 161.003906 129.183594 160.960938 129.09375 160.914062 129.003906 C 160.871094 128.917969 160.824219 128.828125 160.777344 128.742188 C 160.730469 128.65625 160.679688 128.570312 160.628906 128.484375 C 160.578125 128.398438 160.527344 128.3125 160.472656 128.230469 C 160.421875 128.148438 160.367188 128.0625 160.308594 127.980469 C 160.253906 127.898438 160.195312 127.820312 160.136719 127.738281 C 160.078125 127.660156 160.019531 127.582031 159.957031 127.503906 C 159.90625 127.441406 159.855469 127.378906 159.804688 127.316406 C 150.96875 129.035156 146.632812 133.671875 144.757812 136.472656 Z M 144.757812 136.472656 " fill-opacity="1" fill-rule="nonzero"/><g clip-path="url(#cfbfa492f6)"><path fill="#ffffff" d="M 115.171875 149.355469 C 115.171875 149.917969 115.117188 150.476562 115.007812 151.027344 C 114.898438 151.582031 114.734375 152.117188 114.519531 152.636719 C 114.304688 153.160156 114.039062 153.652344 113.726562 154.121094 C 113.414062 154.589844 113.058594 155.023438 112.660156 155.421875 C 112.261719 155.820312 111.828125 156.175781 111.359375 156.488281 C 110.890625 156.800781 110.394531 157.066406 109.875 157.28125 C 109.355469 157.496094 108.820312 157.660156 108.265625 157.769531 C 107.714844 157.878906 107.15625 157.933594 106.59375 157.933594 C 106.03125 157.933594 105.472656 157.878906 104.917969 157.769531 C 104.367188 157.660156 103.832031 157.496094 103.308594 157.28125 C 102.789062 157.066406 102.296875 156.800781 101.828125 156.488281 C 101.359375 156.175781 100.925781 155.820312 100.527344 155.421875 C 100.128906 155.023438 99.773438 154.589844 99.460938 154.121094 C 99.148438 153.652344 98.882812 153.160156 98.667969 152.636719 C 98.453125 152.117188 98.289062 151.582031 98.179688 151.027344 C 98.070312 150.476562 98.015625 149.917969 98.015625 149.355469 C 98.015625 148.792969 98.070312 148.234375 98.179688 147.683594 C 98.289062 147.128906 98.453125 146.59375 98.667969 146.074219 C 98.882812 145.550781 99.148438 145.058594 99.460938 144.589844 C 99.773438 144.121094 100.128906 143.6875 100.527344 143.289062 C 100.925781 142.890625 101.359375 142.535156 101.828125 142.222656 C 102.296875 141.910156 102.789062 141.644531 103.308594 141.429688 C 103.832031 141.214844 104.367188 141.050781 104.917969 140.941406 C 105.472656 140.832031 106.03125 140.777344 106.59375 140.777344 C 107.15625 140.777344 107.714844 140.832031 108.265625 140.941406 C 108.820312 141.050781 109.355469 141.214844 109.875 141.429688 C 110.394531 141.644531 110.890625 141.910156 111.359375 142.222656 C 111.828125 142.535156 112.261719 142.890625 112.660156 143.289062 C 113.058594 143.6875 113.414062 144.121094 113.726562 144.589844 C 114.039062 145.058594 114.304688 145.550781 114.519531 146.074219 C 114.734375 146.59375 114.898438 147.128906 115.007812 147.683594 C 115.117188 148.234375 115.171875 148.792969 115.171875 149.355469 Z M 115.171875 149.355469 " fill-opacity="1" fill-rule="nonzero"/></g><g clip-path="url(#4a3e14abb5)"><g mask="url(#d5a0c9aa7f)"><g transform="matrix(1, 0, 0, 1, 98, 142)"><g clip-path="url(#878cc9637a)"><g clip-path="url(#c868b09d0c)"><path fill="#dd7631" d="M 15.925781 7.777344 C 15.925781 8.261719 15.878906 8.738281 15.785156 9.210938 C 15.691406 9.679688 15.550781 10.140625 15.367188 10.585938 C 15.183594 11.03125 14.957031 11.453125 14.6875 11.851562 C 14.421875 12.253906 14.117188 12.621094 13.777344 12.964844 C 13.4375 13.304688 13.066406 13.609375 12.667969 13.875 C 12.265625 14.144531 11.84375 14.367188 11.398438 14.554688 C 10.953125 14.738281 10.496094 14.875 10.023438 14.96875 C 9.550781 15.0625 9.074219 15.109375 8.59375 15.109375 C 8.113281 15.109375 7.636719 15.0625 7.164062 14.96875 C 6.691406 14.875 6.230469 14.738281 5.789062 14.554688 C 5.34375 14.367188 4.921875 14.144531 4.519531 13.875 C 4.121094 13.609375 3.75 13.304688 3.410156 12.964844 C 3.070312 12.625 2.765625 12.253906 2.496094 11.851562 C 2.230469 11.453125 2.003906 11.03125 1.820312 10.585938 C 1.636719 10.140625 1.496094 9.679688 1.402344 9.210938 C 1.308594 8.738281 1.261719 8.261719 1.261719 7.777344 C 1.261719 7.296875 1.308594 6.820312 1.402344 6.347656 C 1.496094 5.875 1.636719 5.417969 1.820312 4.972656 C 2.003906 4.527344 2.230469 4.105469 2.496094 3.707031 C 2.765625 3.304688 3.070312 2.933594 3.410156 2.59375 C 3.75 2.253906 4.121094 1.949219 4.519531 1.683594 C 4.921875 1.414062 5.34375 1.191406 5.789062 1.003906 C 6.230469 0.820312 6.691406 0.683594 7.164062 0.589844 C 7.636719 0.496094 8.113281 0.449219 8.59375 0.449219 C 9.074219 0.449219 9.550781 0.496094 10.023438 0.589844 C 10.496094 0.683594 10.953125 0.820312 11.398438 1.003906 C 11.84375 1.191406 12.265625 1.414062 12.667969 1.683594 C 13.066406 1.949219 13.4375 2.253906 13.777344 2.59375 C 14.117188 2.933594 14.421875 3.304688 14.6875 3.707031 C 14.957031 4.105469 15.183594 4.527344 15.367188 4.972656 C 15.550781 5.417969 15.691406 5.875 15.785156 6.347656 C 15.878906 6.820312 15.925781 7.296875 15.925781 7.777344 Z M 15.925781 7.777344 " fill-opacity="1" fill-rule="nonzero"/></g></g></g></g></g><path fill="#b2ac47" d="M 113.636719 149.355469 C 113.636719 149.816406 113.59375 150.277344 113.503906 150.730469 C 113.410156 151.183594 113.277344 151.625 113.101562 152.050781 C 112.925781 152.476562 112.707031 152.882812 112.449219 153.269531 C 112.191406 153.652344 111.902344 154.007812 111.574219 154.335938 C 111.246094 154.664062 110.890625 154.957031 110.507812 155.210938 C 110.121094 155.46875 109.714844 155.6875 109.289062 155.863281 C 108.863281 156.039062 108.421875 156.175781 107.96875 156.265625 C 107.515625 156.355469 107.054688 156.398438 106.59375 156.398438 C 106.128906 156.398438 105.671875 156.355469 105.21875 156.265625 C 104.765625 156.175781 104.324219 156.039062 103.898438 155.863281 C 103.46875 155.6875 103.0625 155.46875 102.679688 155.210938 C 102.296875 154.957031 101.9375 154.664062 101.613281 154.335938 C 101.285156 154.007812 100.992188 153.652344 100.734375 153.269531 C 100.480469 152.882812 100.261719 152.476562 100.085938 152.050781 C 99.910156 151.625 99.773438 151.183594 99.683594 150.730469 C 99.59375 150.277344 99.550781 149.816406 99.550781 149.355469 C 99.550781 148.894531 99.59375 148.433594 99.683594 147.980469 C 99.773438 147.527344 99.910156 147.085938 100.085938 146.660156 C 100.261719 146.234375 100.480469 145.828125 100.734375 145.441406 C 100.992188 145.058594 101.285156 144.703125 101.613281 144.375 C 101.9375 144.046875 102.296875 143.753906 102.679688 143.5 C 103.0625 143.242188 103.46875 143.023438 103.898438 142.847656 C 104.324219 142.671875 104.765625 142.535156 105.21875 142.445312 C 105.671875 142.355469 106.128906 142.3125 106.59375 142.3125 C 107.054688 142.3125 107.515625 142.355469 107.96875 142.445312 C 108.421875 142.535156 108.863281 142.671875 109.289062 142.847656 C 109.714844 143.023438 110.121094 143.242188 110.507812 143.5 C 110.890625 143.753906 111.246094 144.046875 111.574219 144.375 C 111.902344 144.703125 112.191406 145.058594 112.449219 145.441406 C 112.707031 145.828125 112.925781 146.234375 113.101562 146.660156 C 113.277344 147.085938 113.410156 147.527344 113.503906 147.980469 C 113.59375 148.433594 113.636719 148.894531 113.636719 149.355469 Z M 113.636719 149.355469 " fill-opacity="1" fill-rule="nonzero"/><path fill="#13548f" d="M 100.101562 152.082031 C 100.183594 152.285156 100.277344 152.484375 100.378906 152.675781 C 100.488281 152.878906 100.609375 153.078125 100.738281 153.269531 C 100.863281 153.460938 101 153.644531 101.148438 153.824219 C 101.292969 154.003906 101.449219 154.171875 101.613281 154.335938 C 101.773438 154.5 101.945312 154.652344 102.125 154.800781 C 102.304688 154.945312 102.488281 155.085938 102.679688 155.210938 C 102.871094 155.339844 103.070312 155.460938 103.273438 155.566406 C 103.476562 155.675781 103.683594 155.773438 103.898438 155.863281 C 104.109375 155.953125 104.328125 156.027344 104.546875 156.097656 C 104.769531 156.164062 104.992188 156.21875 105.21875 156.265625 C 105.445312 156.308594 105.671875 156.34375 105.902344 156.367188 C 106.132812 156.386719 106.363281 156.398438 106.59375 156.398438 C 106.671875 156.398438 106.75 156.398438 106.828125 156.394531 C 106.90625 156.394531 106.984375 156.390625 107.0625 156.382812 C 107.140625 156.378906 107.21875 156.371094 107.296875 156.363281 C 107.375 156.355469 107.453125 156.347656 107.53125 156.335938 C 107.609375 156.328125 107.6875 156.3125 107.765625 156.300781 C 107.84375 156.289062 107.917969 156.273438 107.996094 156.257812 C 108.074219 156.242188 108.148438 156.226562 108.226562 156.207031 C 108.300781 156.191406 108.378906 156.171875 108.453125 156.148438 C 108.53125 156.128906 108.605469 156.105469 108.679688 156.082031 C 108.753906 156.058594 108.828125 156.035156 108.902344 156.011719 C 108.976562 155.984375 109.050781 155.957031 109.125 155.929688 C 109.199219 155.902344 109.269531 155.871094 109.34375 155.839844 C 109.414062 155.808594 109.488281 155.777344 109.558594 155.746094 C 109.628906 155.710938 109.699219 155.679688 109.769531 155.640625 C 109.839844 155.605469 109.910156 155.570312 109.976562 155.53125 C 110.046875 155.496094 110.117188 155.457031 110.183594 155.417969 C 110.25 155.375 110.316406 155.335938 110.382812 155.292969 C 110.449219 155.25 110.515625 155.207031 110.578125 155.164062 C 110.644531 155.117188 110.707031 155.074219 110.773438 155.027344 C 110.835938 154.980469 110.898438 154.933594 110.957031 154.882812 C 111.019531 154.835938 111.082031 154.785156 111.140625 154.734375 C 111.199219 154.683594 111.261719 154.632812 111.316406 154.578125 C 111.375 154.527344 111.433594 154.472656 111.488281 154.417969 C 111.546875 154.363281 111.601562 154.308594 111.65625 154.253906 C 111.710938 154.195312 111.765625 154.140625 111.816406 154.082031 C 111.871094 154.023438 111.921875 153.964844 111.972656 153.902344 C 112.023438 153.84375 112.074219 153.78125 112.121094 153.722656 C 112.171875 153.660156 112.21875 153.597656 112.265625 153.535156 C 112.3125 153.46875 112.355469 153.40625 112.402344 153.34375 C 112.445312 153.277344 112.488281 153.210938 112.53125 153.144531 C 112.574219 153.078125 112.613281 153.011719 112.652344 152.945312 C 112.695312 152.878906 112.734375 152.808594 112.769531 152.742188 C 112.808594 152.671875 112.84375 152.601562 112.878906 152.53125 C 112.914062 152.460938 112.949219 152.390625 112.984375 152.320312 C 113.015625 152.25 113.046875 152.175781 113.078125 152.105469 C 113.109375 152.03125 113.136719 151.960938 113.167969 151.886719 C 113.195312 151.8125 113.222656 151.742188 113.246094 151.667969 C 113.273438 151.59375 113.296875 151.515625 113.320312 151.441406 C 113.34375 151.367188 113.367188 151.292969 113.386719 151.214844 C 113.40625 151.140625 113.425781 151.066406 113.445312 150.988281 C 113.464844 150.914062 113.480469 150.835938 113.496094 150.757812 C 113.511719 150.683594 113.527344 150.605469 113.539062 150.527344 C 113.550781 150.449219 113.5625 150.371094 113.574219 150.292969 C 113.585938 150.214844 113.59375 150.140625 113.601562 150.0625 C 113.609375 149.984375 113.617188 149.90625 113.621094 149.824219 C 113.625 149.746094 113.628906 149.667969 113.632812 149.589844 C 113.636719 149.511719 113.636719 149.433594 113.636719 149.355469 C 113.636719 149.277344 113.636719 149.199219 113.632812 149.121094 C 113.628906 149.042969 113.625 148.964844 113.621094 148.886719 C 113.617188 148.808594 113.609375 148.726562 113.601562 148.648438 C 113.59375 148.570312 113.585938 148.496094 113.574219 148.417969 C 113.5625 148.339844 113.550781 148.261719 113.539062 148.183594 C 113.527344 148.105469 113.511719 148.03125 113.496094 147.953125 C 113.480469 147.875 113.464844 147.800781 113.445312 147.722656 C 113.425781 147.644531 113.40625 147.570312 113.386719 147.496094 C 113.367188 147.417969 113.34375 147.34375 113.320312 147.269531 C 113.296875 147.195312 113.273438 147.117188 113.246094 147.042969 C 113.222656 146.96875 113.195312 146.898438 113.167969 146.824219 C 113.136719 146.75 113.109375 146.679688 113.078125 146.605469 C 113.046875 146.535156 113.015625 146.460938 112.984375 146.390625 C 112.949219 146.320312 112.914062 146.25 112.878906 146.179688 C 112.84375 146.109375 112.808594 146.039062 112.769531 145.96875 C 112.734375 145.902344 112.695312 145.832031 112.652344 145.765625 C 112.613281 145.699219 112.574219 145.632812 112.53125 145.566406 C 112.488281 145.5 112.445312 145.433594 112.402344 145.367188 C 112.355469 145.304688 112.3125 145.242188 112.265625 145.175781 C 112.21875 145.113281 112.171875 145.050781 112.121094 144.988281 C 112.082031 144.941406 112.042969 144.890625 112 144.84375 C 105.015625 146.203125 101.582031 149.867188 100.101562 152.082031 Z M 100.101562 152.082031 " fill-opacity="1" fill-rule="nonzero"/><g clip-path="url(#9a5bc77869)"><path fill="#ffffff" d="M 232.742188 133.023438 C 232.742188 133.734375 232.671875 134.441406 232.535156 135.136719 C 232.394531 135.835938 232.191406 136.515625 231.917969 137.171875 C 231.644531 137.832031 231.3125 138.457031 230.914062 139.046875 C 230.519531 139.640625 230.070312 140.1875 229.566406 140.691406 C 229.0625 141.195312 228.515625 141.644531 227.921875 142.039062 C 227.332031 142.4375 226.707031 142.769531 226.046875 143.042969 C 225.390625 143.316406 224.710938 143.519531 224.011719 143.660156 C 223.316406 143.800781 222.609375 143.867188 221.898438 143.867188 C 221.183594 143.867188 220.480469 143.800781 219.78125 143.660156 C 219.082031 143.519531 218.40625 143.316406 217.746094 143.042969 C 217.089844 142.769531 216.464844 142.4375 215.871094 142.039062 C 215.28125 141.644531 214.730469 141.195312 214.226562 140.691406 C 213.722656 140.1875 213.273438 139.640625 212.878906 139.046875 C 212.484375 138.457031 212.148438 137.832031 211.875 137.171875 C 211.605469 136.515625 211.398438 135.835938 211.257812 135.136719 C 211.121094 134.441406 211.050781 133.734375 211.050781 133.023438 C 211.050781 132.308594 211.121094 131.605469 211.257812 130.90625 C 211.398438 130.207031 211.605469 129.53125 211.875 128.871094 C 212.148438 128.214844 212.484375 127.589844 212.878906 126.996094 C 213.273438 126.40625 213.722656 125.855469 214.226562 125.351562 C 214.730469 124.847656 215.28125 124.398438 215.871094 124.003906 C 216.464844 123.609375 217.089844 123.273438 217.746094 123.003906 C 218.40625 122.730469 219.082031 122.523438 219.78125 122.382812 C 220.480469 122.246094 221.183594 122.175781 221.898438 122.175781 C 222.609375 122.175781 223.316406 122.246094 224.011719 122.382812 C 224.710938 122.523438 225.390625 122.730469 226.046875 123.003906 C 226.707031 123.273438 227.332031 123.609375 227.921875 124.003906 C 228.515625 124.398438 229.0625 124.847656 229.566406 125.351562 C 230.070312 125.855469 230.519531 126.40625 230.914062 126.996094 C 231.3125 127.589844 231.644531 128.214844 231.917969 128.871094 C 232.191406 129.53125 232.394531 130.207031 232.535156 130.90625 C 232.671875 131.605469 232.742188 132.308594 232.742188 133.023438 Z M 232.742188 133.023438 " fill-opacity="1" fill-rule="nonzero"/></g><g clip-path="url(#48997f68e0)"><g mask="url(#8fea33a7c8)"><g transform="matrix(1, 0, 0, 1, 212, 123)"><g clip-path="url(#17aa6b17e5)"><g clip-path="url(#530cdd98a8)"><path fill="#000000" d="M 19.167969 10.558594 C 19.167969 11.167969 19.109375 11.769531 18.988281 12.367188 C 18.871094 12.964844 18.695312 13.542969 18.460938 14.105469 C 18.226562 14.667969 17.941406 15.203125 17.605469 15.707031 C 17.265625 16.214844 16.882812 16.683594 16.453125 17.113281 C 16.023438 17.542969 15.554688 17.925781 15.046875 18.265625 C 14.542969 18.605469 14.007812 18.890625 13.445312 19.121094 C 12.882812 19.355469 12.300781 19.53125 11.707031 19.648438 C 11.109375 19.769531 10.503906 19.828125 9.898438 19.828125 C 9.289062 19.828125 8.6875 19.769531 8.089844 19.648438 C 7.492188 19.53125 6.910156 19.355469 6.351562 19.121094 C 5.789062 18.890625 5.253906 18.605469 4.746094 18.265625 C 4.242188 17.925781 3.773438 17.542969 3.34375 17.113281 C 2.910156 16.683594 2.527344 16.214844 2.191406 15.707031 C 1.851562 15.203125 1.566406 14.667969 1.332031 14.105469 C 1.101562 13.542969 0.925781 12.964844 0.804688 12.367188 C 0.6875 11.769531 0.628906 11.167969 0.628906 10.558594 C 0.628906 9.949219 0.6875 9.347656 0.804688 8.75 C 0.925781 8.152344 1.101562 7.574219 1.332031 7.011719 C 1.566406 6.449219 1.851562 5.914062 2.191406 5.40625 C 2.527344 4.902344 2.910156 4.433594 3.34375 4.003906 C 3.773438 3.574219 4.242188 3.1875 4.746094 2.851562 C 5.253906 2.511719 5.789062 2.226562 6.351562 1.992188 C 6.910156 1.761719 7.492188 1.585938 8.089844 1.464844 C 8.6875 1.347656 9.289062 1.289062 9.898438 1.289062 C 10.503906 1.289062 11.109375 1.347656 11.707031 1.464844 C 12.300781 1.585938 12.882812 1.761719 13.445312 1.992188 C 14.007812 2.226562 14.542969 2.511719 15.046875 2.851562 C 15.554688 3.1875 16.023438 3.574219 16.453125 4.003906 C 16.882812 4.433594 17.265625 4.902344 17.605469 5.40625 C 17.941406 5.914062 18.226562 6.449219 18.460938 7.011719 C 18.695312 7.574219 18.871094 8.152344 18.988281 8.75 C 19.109375 9.347656 19.167969 9.949219 19.167969 10.558594 Z M 19.167969 10.558594 " fill-opacity="1" fill-rule="nonzero"/></g></g></g></g></g><path fill="#004aad" d="M 230.804688 133.023438 C 230.804688 133.605469 230.746094 134.1875 230.632812 134.761719 C 230.519531 135.332031 230.347656 135.890625 230.125 136.429688 C 229.902344 136.972656 229.628906 137.484375 229.300781 137.96875 C 228.976562 138.457031 228.609375 138.90625 228.195312 139.320312 C 227.78125 139.734375 227.332031 140.101562 226.84375 140.425781 C 226.359375 140.753906 225.84375 141.027344 225.304688 141.25 C 224.765625 141.472656 224.207031 141.644531 223.632812 141.757812 C 223.0625 141.871094 222.480469 141.929688 221.898438 141.929688 C 221.3125 141.929688 220.734375 141.871094 220.160156 141.757812 C 219.585938 141.644531 219.027344 141.472656 218.488281 141.25 C 217.949219 141.027344 217.433594 140.753906 216.949219 140.425781 C 216.464844 140.101562 216.011719 139.734375 215.597656 139.320312 C 215.1875 138.90625 214.816406 138.457031 214.492188 137.96875 C 214.167969 137.484375 213.894531 136.972656 213.667969 136.429688 C 213.445312 135.890625 213.277344 135.332031 213.164062 134.761719 C 213.046875 134.1875 212.992188 133.605469 212.992188 133.023438 C 212.992188 132.4375 213.046875 131.859375 213.164062 131.285156 C 213.277344 130.710938 213.445312 130.15625 213.667969 129.613281 C 213.894531 129.074219 214.167969 128.5625 214.492188 128.074219 C 214.816406 127.589844 215.1875 127.136719 215.597656 126.726562 C 216.011719 126.3125 216.464844 125.941406 216.949219 125.617188 C 217.433594 125.292969 217.949219 125.019531 218.488281 124.792969 C 219.027344 124.570312 219.585938 124.402344 220.160156 124.289062 C 220.734375 124.171875 221.3125 124.117188 221.898438 124.117188 C 222.480469 124.117188 223.0625 124.171875 223.632812 124.289062 C 224.207031 124.402344 224.765625 124.570312 225.304688 124.792969 C 225.84375 125.019531 226.359375 125.292969 226.84375 125.617188 C 227.332031 125.941406 227.78125 126.3125 228.195312 126.726562 C 228.609375 127.136719 228.976562 127.589844 229.300781 128.074219 C 229.628906 128.5625 229.902344 129.074219 230.125 129.613281 C 230.347656 130.15625 230.519531 130.710938 230.632812 131.285156 C 230.746094 131.859375 230.804688 132.4375 230.804688 133.023438 Z M 230.804688 133.023438 " fill-opacity="1" fill-rule="nonzero"/><path fill="#13548f" d="M 213.6875 136.472656 C 213.792969 136.726562 213.914062 136.976562 214.042969 137.222656 C 214.179688 137.476562 214.328125 137.726562 214.492188 137.96875 C 214.652344 138.210938 214.828125 138.445312 215.011719 138.671875 C 215.199219 138.898438 215.394531 139.113281 215.597656 139.320312 C 215.804688 139.527344 216.023438 139.722656 216.246094 139.90625 C 216.472656 140.09375 216.707031 140.265625 216.949219 140.425781 C 217.191406 140.589844 217.441406 140.738281 217.699219 140.875 C 217.957031 141.015625 218.21875 141.140625 218.488281 141.25 C 218.757812 141.363281 219.03125 141.460938 219.3125 141.546875 C 219.589844 141.628906 219.875 141.699219 220.160156 141.757812 C 220.445312 141.8125 220.734375 141.855469 221.023438 141.886719 C 221.316406 141.914062 221.605469 141.929688 221.898438 141.929688 C 221.996094 141.929688 222.09375 141.925781 222.195312 141.921875 C 222.292969 141.921875 222.394531 141.914062 222.492188 141.910156 C 222.589844 141.902344 222.691406 141.894531 222.789062 141.882812 C 222.886719 141.875 222.984375 141.863281 223.085938 141.847656 C 223.183594 141.835938 223.28125 141.820312 223.378906 141.804688 C 223.476562 141.789062 223.574219 141.769531 223.671875 141.75 C 223.769531 141.730469 223.867188 141.710938 223.960938 141.6875 C 224.058594 141.664062 224.15625 141.636719 224.25 141.613281 C 224.347656 141.585938 224.441406 141.558594 224.535156 141.527344 C 224.628906 141.5 224.726562 141.46875 224.820312 141.4375 C 224.914062 141.402344 225.003906 141.371094 225.097656 141.332031 C 225.191406 141.296875 225.28125 141.261719 225.375 141.222656 C 225.464844 141.183594 225.554688 141.144531 225.644531 141.101562 C 225.734375 141.058594 225.824219 141.015625 225.914062 140.972656 C 226.003906 140.925781 226.089844 140.878906 226.175781 140.832031 C 226.265625 140.785156 226.351562 140.734375 226.4375 140.683594 C 226.519531 140.632812 226.605469 140.582031 226.691406 140.53125 C 226.773438 140.476562 226.855469 140.421875 226.9375 140.363281 C 227.019531 140.308594 227.101562 140.25 227.179688 140.191406 C 227.261719 140.132812 227.339844 140.074219 227.417969 140.011719 C 227.496094 139.949219 227.570312 139.886719 227.648438 139.824219 C 227.722656 139.757812 227.796875 139.695312 227.871094 139.628906 C 227.945312 139.5625 228.015625 139.492188 228.089844 139.425781 C 228.160156 139.355469 228.230469 139.285156 228.300781 139.214844 C 228.367188 139.144531 228.4375 139.070312 228.503906 138.996094 C 228.570312 138.921875 228.632812 138.847656 228.699219 138.773438 C 228.761719 138.695312 228.824219 138.621094 228.886719 138.542969 C 228.949219 138.464844 229.007812 138.386719 229.066406 138.304688 C 229.125 138.226562 229.183594 138.144531 229.238281 138.0625 C 229.296875 137.980469 229.351562 137.898438 229.402344 137.816406 C 229.457031 137.730469 229.507812 137.648438 229.558594 137.5625 C 229.609375 137.476562 229.660156 137.390625 229.707031 137.300781 C 229.753906 137.214844 229.800781 137.128906 229.847656 137.039062 C 229.890625 136.949219 229.933594 136.859375 229.976562 136.769531 C 230.019531 136.679688 230.058594 136.589844 230.097656 136.5 C 230.136719 136.40625 230.171875 136.316406 230.207031 136.222656 C 230.242188 136.128906 230.277344 136.039062 230.3125 135.945312 C 230.34375 135.851562 230.375 135.753906 230.402344 135.660156 C 230.433594 135.566406 230.460938 135.472656 230.488281 135.375 C 230.511719 135.28125 230.539062 135.183594 230.5625 135.085938 C 230.582031 134.992188 230.605469 134.894531 230.625 134.796875 C 230.644531 134.699219 230.664062 134.601562 230.679688 134.503906 C 230.695312 134.40625 230.710938 134.308594 230.722656 134.210938 C 230.738281 134.109375 230.75 134.011719 230.757812 133.914062 C 230.769531 133.816406 230.777344 133.714844 230.785156 133.617188 C 230.789062 133.519531 230.796875 133.417969 230.796875 133.320312 C 230.800781 133.222656 230.804688 133.121094 230.804688 133.023438 C 230.804688 132.921875 230.800781 132.824219 230.796875 132.726562 C 230.796875 132.625 230.789062 132.527344 230.785156 132.425781 C 230.777344 132.328125 230.769531 132.230469 230.757812 132.132812 C 230.75 132.03125 230.738281 131.933594 230.722656 131.835938 C 230.710938 131.738281 230.695312 131.640625 230.679688 131.542969 C 230.664062 131.441406 230.644531 131.347656 230.625 131.25 C 230.605469 131.152344 230.582031 131.054688 230.5625 130.957031 C 230.539062 130.863281 230.511719 130.765625 230.488281 130.667969 C 230.460938 130.574219 230.433594 130.480469 230.402344 130.382812 C 230.375 130.289062 230.34375 130.195312 230.3125 130.101562 C 230.277344 130.007812 230.242188 129.914062 230.207031 129.820312 C 230.171875 129.730469 230.136719 129.636719 230.097656 129.546875 C 230.058594 129.453125 230.019531 129.363281 229.976562 129.273438 C 229.933594 129.183594 229.890625 129.09375 229.847656 129.003906 C 229.800781 128.917969 229.753906 128.828125 229.707031 128.742188 C 229.660156 128.65625 229.609375 128.570312 229.558594 128.484375 C 229.507812 128.398438 229.457031 128.3125 229.402344 128.230469 C 229.351562 128.148438 229.296875 128.0625 229.238281 127.980469 C 229.183594 127.898438 229.125 127.820312 229.066406 127.738281 C 229.007812 127.660156 228.949219 127.582031 228.886719 127.503906 C 228.835938 127.441406 228.785156 127.378906 228.734375 127.316406 C 219.902344 129.035156 215.5625 133.671875 213.6875 136.472656 Z M 213.6875 136.472656 " fill-opacity="1" fill-rule="nonzero"/><g clip-path="url(#0cc477674b)"><path fill="#ffffff" d="M 276.90625 149.355469 C 276.90625 149.917969 276.851562 150.476562 276.742188 151.027344 C 276.632812 151.582031 276.46875 152.117188 276.253906 152.636719 C 276.039062 153.160156 275.773438 153.652344 275.460938 154.121094 C 275.148438 154.589844 274.792969 155.023438 274.394531 155.421875 C 273.996094 155.820312 273.5625 156.175781 273.09375 156.488281 C 272.625 156.800781 272.132812 157.066406 271.613281 157.28125 C 271.089844 157.496094 270.554688 157.660156 270.003906 157.769531 C 269.449219 157.878906 268.890625 157.933594 268.328125 157.933594 C 267.765625 157.933594 267.207031 157.878906 266.65625 157.769531 C 266.101562 157.660156 265.566406 157.496094 265.046875 157.28125 C 264.527344 157.066406 264.03125 156.800781 263.5625 156.488281 C 263.09375 156.175781 262.660156 155.820312 262.261719 155.421875 C 261.863281 155.023438 261.507812 154.589844 261.195312 154.121094 C 260.882812 153.652344 260.621094 153.160156 260.402344 152.636719 C 260.1875 152.117188 260.027344 151.582031 259.914062 151.027344 C 259.804688 150.476562 259.75 149.917969 259.75 149.355469 C 259.75 148.792969 259.804688 148.234375 259.914062 147.683594 C 260.027344 147.128906 260.1875 146.59375 260.402344 146.074219 C 260.621094 145.550781 260.882812 145.058594 261.195312 144.589844 C 261.507812 144.121094 261.863281 143.6875 262.261719 143.289062 C 262.660156 142.890625 263.09375 142.535156 263.5625 142.222656 C 264.03125 141.910156 264.527344 141.644531 265.046875 141.429688 C 265.566406 141.214844 266.101562 141.050781 266.65625 140.941406 C 267.207031 140.832031 267.765625 140.777344 268.328125 140.777344 C 268.890625 140.777344 269.449219 140.832031 270.003906 140.941406 C 270.554688 141.050781 271.089844 141.214844 271.613281 141.429688 C 272.132812 141.644531 272.625 141.910156 273.09375 142.222656 C 273.5625 142.535156 273.996094 142.890625 274.394531 143.289062 C 274.792969 143.6875 275.148438 144.121094 275.460938 144.589844 C 275.773438 145.058594 276.039062 145.550781 276.253906 146.074219 C 276.46875 146.59375 276.632812 147.128906 276.742188 147.683594 C 276.851562 148.234375 276.90625 148.792969 276.90625 149.355469 Z M 276.90625 149.355469 " fill-opacity="1" fill-rule="nonzero"/></g><g mask="url(#ba1f722eea)"><g transform="matrix(1, 0, 0, 1, 260, 142)"><g clip-path="url(#154c6a1a74)"><g clip-path="url(#c81bc67a4d)"><path fill="#000000" d="M 15.660156 7.777344 C 15.660156 8.261719 15.613281 8.738281 15.519531 9.210938 C 15.425781 9.679688 15.285156 10.140625 15.101562 10.585938 C 14.917969 11.03125 14.691406 11.453125 14.425781 11.851562 C 14.15625 12.253906 13.855469 12.621094 13.511719 12.964844 C 13.171875 13.304688 12.804688 13.609375 12.402344 13.875 C 12.003906 14.144531 11.578125 14.367188 11.136719 14.554688 C 10.691406 14.738281 10.230469 14.875 9.757812 14.96875 C 9.289062 15.0625 8.8125 15.109375 8.328125 15.109375 C 7.847656 15.109375 7.371094 15.0625 6.898438 14.96875 C 6.425781 14.875 5.96875 14.738281 5.523438 14.554688 C 5.078125 14.367188 4.65625 14.144531 4.257812 13.875 C 3.855469 13.609375 3.484375 13.304688 3.144531 12.964844 C 2.804688 12.625 2.5 12.253906 2.234375 11.851562 C 1.964844 11.453125 1.738281 11.03125 1.554688 10.585938 C 1.371094 10.140625 1.230469 9.679688 1.136719 9.210938 C 1.042969 8.738281 0.996094 8.261719 0.996094 7.777344 C 0.996094 7.296875 1.042969 6.820312 1.136719 6.347656 C 1.230469 5.875 1.371094 5.417969 1.554688 4.972656 C 1.738281 4.527344 1.964844 4.105469 2.234375 3.707031 C 2.5 3.304688 2.804688 2.933594 3.144531 2.59375 C 3.484375 2.253906 3.855469 1.949219 4.257812 1.683594 C 4.65625 1.414062 5.078125 1.191406 5.523438 1.003906 C 5.96875 0.820312 6.425781 0.683594 6.898438 0.589844 C 7.371094 0.496094 7.847656 0.449219 8.328125 0.449219 C 8.8125 0.449219 9.289062 0.496094 9.757812 0.589844 C 10.230469 0.683594 10.691406 0.820312 11.136719 1.003906 C 11.578125 1.191406 12.003906 1.414062 12.402344 1.683594 C 12.804688 1.949219 13.171875 2.253906 13.511719 2.59375 C 13.855469 2.933594 14.15625 3.304688 14.425781 3.707031 C 14.691406 4.105469 14.917969 4.527344 15.101562 4.972656 C 15.285156 5.417969 15.425781 5.875 15.519531 6.347656 C 15.613281 6.820312 15.660156 7.296875 15.660156 7.777344 Z M 15.660156 7.777344 " fill-opacity="1" fill-rule="nonzero"/></g></g></g></g><path fill="#b2ac47" d="M 275.375 149.355469 C 275.375 149.816406 275.328125 150.277344 275.238281 150.730469 C 275.148438 151.183594 275.015625 151.625 274.835938 152.050781 C 274.660156 152.476562 274.441406 152.882812 274.1875 153.269531 C 273.929688 153.652344 273.636719 154.007812 273.308594 154.335938 C 272.984375 154.664062 272.628906 154.957031 272.242188 155.210938 C 271.859375 155.46875 271.453125 155.6875 271.023438 155.863281 C 270.597656 156.039062 270.15625 156.175781 269.703125 156.265625 C 269.25 156.355469 268.792969 156.398438 268.328125 156.398438 C 267.867188 156.398438 267.410156 156.355469 266.953125 156.265625 C 266.5 156.175781 266.0625 156.039062 265.632812 155.863281 C 265.207031 155.6875 264.800781 155.46875 264.414062 155.210938 C 264.03125 154.957031 263.675781 154.664062 263.347656 154.335938 C 263.019531 154.007812 262.730469 153.652344 262.472656 153.269531 C 262.214844 152.882812 262 152.476562 261.820312 152.050781 C 261.644531 151.625 261.511719 151.183594 261.421875 150.730469 C 261.332031 150.277344 261.285156 149.816406 261.285156 149.355469 C 261.285156 148.894531 261.332031 148.433594 261.421875 147.980469 C 261.511719 147.527344 261.644531 147.085938 261.820312 146.660156 C 262 146.234375 262.214844 145.828125 262.472656 145.441406 C 262.730469 145.058594 263.019531 144.703125 263.347656 144.375 C 263.675781 144.046875 264.03125 143.753906 264.414062 143.5 C 264.800781 143.242188 265.207031 143.023438 265.632812 142.847656 C 266.0625 142.671875 266.5 142.535156 266.953125 142.445312 C 267.410156 142.355469 267.867188 142.3125 268.328125 142.3125 C 268.792969 142.3125 269.25 142.355469 269.703125 142.445312 C 270.15625 142.535156 270.597656 142.671875 271.023438 142.847656 C 271.453125 143.023438 271.859375 143.242188 272.242188 143.5 C 272.628906 143.753906 272.984375 144.046875 273.308594 144.375 C 273.636719 144.703125 273.929688 145.058594 274.1875 145.441406 C 274.441406 145.828125 274.660156 146.234375 274.835938 146.660156 C 275.015625 147.085938 275.148438 147.527344 275.238281 147.980469 C 275.328125 148.433594 275.375 148.894531 275.375 149.355469 Z M 275.375 149.355469 " fill-opacity="1" fill-rule="nonzero"/><path fill="#13548f" d="M 261.835938 152.082031 C 261.921875 152.285156 262.015625 152.484375 262.117188 152.675781 C 262.226562 152.878906 262.34375 153.078125 262.472656 153.269531 C 262.601562 153.460938 262.738281 153.644531 262.882812 153.824219 C 263.03125 154.003906 263.183594 154.171875 263.347656 154.335938 C 263.511719 154.5 263.683594 154.652344 263.859375 154.800781 C 264.039062 154.945312 264.222656 155.085938 264.414062 155.210938 C 264.609375 155.339844 264.804688 155.460938 265.007812 155.566406 C 265.210938 155.675781 265.421875 155.773438 265.632812 155.863281 C 265.847656 155.953125 266.0625 156.027344 266.285156 156.097656 C 266.503906 156.164062 266.730469 156.21875 266.957031 156.265625 C 267.179688 156.308594 267.410156 156.34375 267.640625 156.367188 C 267.867188 156.386719 268.097656 156.398438 268.328125 156.398438 C 268.40625 156.398438 268.484375 156.398438 268.566406 156.394531 C 268.644531 156.394531 268.722656 156.390625 268.800781 156.382812 C 268.878906 156.378906 268.957031 156.371094 269.035156 156.363281 C 269.113281 156.355469 269.191406 156.347656 269.269531 156.335938 C 269.347656 156.328125 269.421875 156.3125 269.5 156.300781 C 269.578125 156.289062 269.65625 156.273438 269.730469 156.257812 C 269.808594 156.242188 269.886719 156.226562 269.960938 156.207031 C 270.039062 156.191406 270.113281 156.171875 270.191406 156.148438 C 270.265625 156.128906 270.339844 156.105469 270.417969 156.082031 C 270.492188 156.058594 270.566406 156.035156 270.640625 156.011719 C 270.714844 155.984375 270.789062 155.957031 270.859375 155.929688 C 270.933594 155.902344 271.007812 155.871094 271.078125 155.839844 C 271.152344 155.808594 271.222656 155.777344 271.292969 155.746094 C 271.367188 155.710938 271.4375 155.679688 271.507812 155.640625 C 271.574219 155.605469 271.644531 155.570312 271.714844 155.53125 C 271.785156 155.496094 271.851562 155.457031 271.917969 155.417969 C 271.988281 155.375 272.054688 155.335938 272.121094 155.292969 C 272.1875 155.25 272.25 155.207031 272.316406 155.164062 C 272.378906 155.117188 272.445312 155.074219 272.507812 155.027344 C 272.570312 154.980469 272.632812 154.933594 272.695312 154.882812 C 272.757812 154.835938 272.816406 154.785156 272.878906 154.734375 C 272.9375 154.683594 272.996094 154.632812 273.054688 154.578125 C 273.113281 154.527344 273.167969 154.472656 273.226562 154.417969 C 273.28125 154.363281 273.339844 154.308594 273.394531 154.253906 C 273.445312 154.195312 273.5 154.140625 273.554688 154.082031 C 273.605469 154.023438 273.65625 153.964844 273.707031 153.902344 C 273.757812 153.84375 273.808594 153.78125 273.859375 153.722656 C 273.90625 153.660156 273.953125 153.597656 274 153.535156 C 274.046875 153.46875 274.09375 153.40625 274.136719 153.34375 C 274.179688 153.277344 274.222656 153.210938 274.265625 153.144531 C 274.308594 153.078125 274.351562 153.011719 274.390625 152.945312 C 274.429688 152.878906 274.46875 152.808594 274.507812 152.742188 C 274.542969 152.671875 274.582031 152.601562 274.617188 152.53125 C 274.652344 152.460938 274.6875 152.390625 274.71875 152.320312 C 274.75 152.25 274.785156 152.175781 274.8125 152.105469 C 274.84375 152.03125 274.875 151.960938 274.902344 151.886719 C 274.929688 151.8125 274.957031 151.742188 274.984375 151.667969 C 275.007812 151.59375 275.035156 151.515625 275.058594 151.441406 C 275.082031 151.367188 275.101562 151.292969 275.121094 151.214844 C 275.144531 151.140625 275.164062 151.066406 275.179688 150.988281 C 275.199219 150.914062 275.214844 150.835938 275.230469 150.757812 C 275.246094 150.683594 275.261719 150.605469 275.273438 150.527344 C 275.289062 150.449219 275.300781 150.371094 275.308594 150.292969 C 275.320312 150.214844 275.328125 150.140625 275.339844 150.0625 C 275.347656 149.984375 275.351562 149.90625 275.359375 149.824219 C 275.363281 149.746094 275.367188 149.667969 275.371094 149.589844 C 275.371094 149.511719 275.375 149.433594 275.375 149.355469 C 275.375 149.277344 275.371094 149.199219 275.371094 149.121094 C 275.367188 149.042969 275.363281 148.964844 275.359375 148.886719 C 275.351562 148.808594 275.347656 148.726562 275.339844 148.648438 C 275.328125 148.570312 275.320312 148.496094 275.308594 148.417969 C 275.300781 148.339844 275.289062 148.261719 275.273438 148.183594 C 275.261719 148.105469 275.246094 148.03125 275.230469 147.953125 C 275.214844 147.875 275.199219 147.800781 275.179688 147.722656 C 275.164062 147.644531 275.144531 147.570312 275.121094 147.496094 C 275.101562 147.417969 275.082031 147.34375 275.058594 147.269531 C 275.035156 147.195312 275.007812 147.117188 274.984375 147.042969 C 274.957031 146.96875 274.929688 146.898438 274.902344 146.824219 C 274.875 146.75 274.84375 146.679688 274.8125 146.605469 C 274.785156 146.535156 274.75 146.460938 274.71875 146.390625 C 274.6875 146.320312 274.652344 146.25 274.617188 146.179688 C 274.582031 146.109375 274.542969 146.039062 274.507812 145.96875 C 274.46875 145.902344 274.429688 145.832031 274.390625 145.765625 C 274.351562 145.699219 274.308594 145.632812 274.265625 145.566406 C 274.222656 145.5 274.179688 145.433594 274.136719 145.367188 C 274.09375 145.304688 274.046875 145.242188 274 145.175781 C 273.953125 145.113281 273.90625 145.050781 273.859375 144.988281 C 273.816406 144.941406 273.777344 144.890625 273.738281 144.84375 C 266.75 146.203125 263.320312 149.867188 261.835938 152.082031 Z M 261.835938 152.082031 " fill-opacity="1" fill-rule="nonzero"/><g fill="#004aad" fill-opacity="1"><g transform="translate(89.195682, 224.293375)"><g><path d="M 5.0625 0.21875 C 4.28125 0.21875 3.5 0.078125 2.71875 -0.203125 C 1.945312 -0.492188 1.253906 -0.925781 0.640625 -1.5 L 2.1875 -3.359375 C 2.613281 -2.984375 3.082031 -2.679688 3.59375 -2.453125 C 4.113281 -2.222656 4.625 -2.109375 5.125 -2.109375 C 5.6875 -2.109375 6.101562 -2.210938 6.375 -2.421875 C 6.65625 -2.628906 6.796875 -2.910156 6.796875 -3.265625 C 6.796875 -3.441406 6.753906 -3.597656 6.671875 -3.734375 C 6.597656 -3.867188 6.484375 -3.988281 6.328125 -4.09375 C 6.179688 -4.195312 6 -4.296875 5.78125 -4.390625 C 5.570312 -4.484375 5.335938 -4.582031 5.078125 -4.6875 L 3.515625 -5.359375 C 3.210938 -5.472656 2.914062 -5.628906 2.625 -5.828125 C 2.34375 -6.023438 2.085938 -6.253906 1.859375 -6.515625 C 1.628906 -6.773438 1.445312 -7.078125 1.3125 -7.421875 C 1.1875 -7.773438 1.125 -8.171875 1.125 -8.609375 C 1.125 -9.097656 1.222656 -9.5625 1.421875 -10 C 1.628906 -10.4375 1.921875 -10.816406 2.296875 -11.140625 C 2.679688 -11.460938 3.132812 -11.710938 3.65625 -11.890625 C 4.175781 -12.078125 4.75 -12.171875 5.375 -12.171875 C 6.070312 -12.171875 6.757812 -12.035156 7.4375 -11.765625 C 8.113281 -11.492188 8.707031 -11.101562 9.21875 -10.59375 L 7.84375 -8.890625 C 7.457031 -9.191406 7.066406 -9.425781 6.671875 -9.59375 C 6.273438 -9.757812 5.84375 -9.84375 5.375 -9.84375 C 4.90625 -9.84375 4.53125 -9.75 4.25 -9.5625 C 3.976562 -9.375 3.84375 -9.109375 3.84375 -8.765625 C 3.84375 -8.578125 3.890625 -8.414062 3.984375 -8.28125 C 4.078125 -8.15625 4.207031 -8.039062 4.375 -7.9375 C 4.539062 -7.84375 4.734375 -7.75 4.953125 -7.65625 C 5.171875 -7.5625 5.40625 -7.457031 5.65625 -7.34375 L 7.203125 -6.71875 C 7.929688 -6.425781 8.503906 -6.023438 8.921875 -5.515625 C 9.347656 -5.003906 9.5625 -4.328125 9.5625 -3.484375 C 9.5625 -2.984375 9.460938 -2.507812 9.265625 -2.0625 C 9.066406 -1.613281 8.773438 -1.222656 8.390625 -0.890625 C 8.003906 -0.554688 7.53125 -0.285156 6.96875 -0.078125 C 6.40625 0.117188 5.769531 0.21875 5.0625 0.21875 Z M 5.0625 0.21875 "/></g></g></g><g fill="#004aad" fill-opacity="1"><g transform="translate(104.675234, 224.293375)"><g><path d="M 1.40625 0 L 1.40625 -11.953125 L 4.109375 -11.953125 L 4.109375 0 Z M 1.40625 0 "/></g></g></g><g fill="#004aad" fill-opacity="1"><g transform="translate(115.484087, 224.293375)"><g><path d="M 0.203125 0 L 3.515625 -6.140625 L 0.40625 -11.953125 L 3.40625 -11.953125 L 4.453125 -9.703125 C 4.585938 -9.421875 4.722656 -9.125 4.859375 -8.8125 C 4.992188 -8.5 5.144531 -8.148438 5.3125 -7.765625 L 5.390625 -7.765625 C 5.523438 -8.148438 5.65625 -8.5 5.78125 -8.8125 C 5.90625 -9.125 6.03125 -9.421875 6.15625 -9.703125 L 7.109375 -11.953125 L 9.984375 -11.953125 L 6.890625 -6.015625 L 10.1875 0 L 7.1875 0 L 6 -2.4375 C 5.84375 -2.757812 5.695312 -3.070312 5.5625 -3.375 C 5.425781 -3.6875 5.269531 -4.03125 5.09375 -4.40625 L 5.015625 -4.40625 C 4.890625 -4.03125 4.757812 -3.6875 4.625 -3.375 C 4.488281 -3.070312 4.351562 -2.757812 4.21875 -2.4375 L 3.09375 0 Z M 0.203125 0 "/></g></g></g><g fill="#004aad" fill-opacity="1"><g transform="translate(131.165112, 224.293375)"><g><path d="M 1.40625 0 L 1.40625 -11.953125 L 4.359375 -11.953125 L 6.28125 -6.640625 C 6.40625 -6.285156 6.519531 -5.921875 6.625 -5.546875 C 6.738281 -5.171875 6.859375 -4.800781 6.984375 -4.4375 L 7.0625 -4.4375 C 7.175781 -4.800781 7.285156 -5.171875 7.390625 -5.546875 C 7.492188 -5.921875 7.609375 -6.285156 7.734375 -6.640625 L 9.625 -11.953125 L 12.5625 -11.953125 L 12.5625 0 L 10.09375 0 L 10.09375 -4.375 C 10.09375 -4.675781 10.101562 -5.003906 10.125 -5.359375 C 10.15625 -5.710938 10.1875 -6.066406 10.21875 -6.421875 C 10.257812 -6.785156 10.296875 -7.140625 10.328125 -7.484375 C 10.367188 -7.835938 10.410156 -8.160156 10.453125 -8.453125 L 10.375 -8.453125 L 9.40625 -5.609375 L 7.703125 -1.046875 L 6.21875 -1.046875 L 4.515625 -5.609375 L 3.5625 -8.453125 L 3.484375 -8.453125 C 3.515625 -8.160156 3.546875 -7.835938 3.578125 -7.484375 C 3.617188 -7.140625 3.65625 -6.785156 3.6875 -6.421875 C 3.726562 -6.066406 3.757812 -5.710938 3.78125 -5.359375 C 3.8125 -5.003906 3.828125 -4.675781 3.828125 -4.375 L 3.828125 0 Z M 1.40625 0 "/></g></g></g><g fill="#004aad" fill-opacity="1"><g transform="translate(150.41785, 224.293375)"><g><path d="M 1.40625 0 L 1.40625 -11.953125 L 4.109375 -11.953125 L 4.109375 0 Z M 1.40625 0 "/></g></g></g><g fill="#004aad" fill-opacity="1"><g transform="translate(161.226702, 224.293375)"><g><path d="M 1.40625 0 L 1.40625 -11.953125 L 4.109375 -11.953125 L 4.109375 -2.265625 L 8.828125 -2.265625 L 8.828125 0 Z M 1.40625 0 "/></g></g></g><g fill="#004aad" fill-opacity="1"><g transform="translate(176.010225, 224.293375)"><g><path d="M 1.40625 0 L 1.40625 -11.953125 L 8.890625 -11.953125 L 8.890625 -9.671875 L 4.109375 -9.671875 L 4.109375 -7.28125 L 8.171875 -7.28125 L 8.171875 -5.015625 L 4.109375 -5.015625 L 4.109375 -2.265625 L 9.078125 -2.265625 L 9.078125 0 Z M 1.40625 0 "/></g></g></g><g fill="#004aad" fill-opacity="1"><g transform="translate(191.343247, 224.293375)"><g><path d="M 1.40625 0 L 1.40625 -11.953125 L 5.5 -11.953125 C 6.125 -11.953125 6.703125 -11.90625 7.234375 -11.8125 C 7.765625 -11.71875 8.226562 -11.554688 8.625 -11.328125 C 9.019531 -11.097656 9.328125 -10.789062 9.546875 -10.40625 C 9.773438 -10.03125 9.890625 -9.554688 9.890625 -8.984375 C 9.890625 -8.710938 9.851562 -8.441406 9.78125 -8.171875 C 9.707031 -7.898438 9.601562 -7.648438 9.46875 -7.421875 C 9.34375 -7.191406 9.179688 -6.984375 8.984375 -6.796875 C 8.796875 -6.617188 8.582031 -6.484375 8.34375 -6.390625 L 8.34375 -6.328125 C 8.644531 -6.253906 8.921875 -6.140625 9.171875 -5.984375 C 9.429688 -5.828125 9.660156 -5.632812 9.859375 -5.40625 C 10.054688 -5.175781 10.207031 -4.90625 10.3125 -4.59375 C 10.425781 -4.28125 10.484375 -3.921875 10.484375 -3.515625 C 10.484375 -2.910156 10.363281 -2.382812 10.125 -1.9375 C 9.882812 -1.5 9.550781 -1.132812 9.125 -0.84375 C 8.707031 -0.5625 8.21875 -0.347656 7.65625 -0.203125 C 7.09375 -0.0664062 6.488281 0 5.84375 0 Z M 4.109375 -7.171875 L 5.375 -7.171875 C 6.03125 -7.171875 6.507812 -7.296875 6.8125 -7.546875 C 7.113281 -7.804688 7.265625 -8.148438 7.265625 -8.578125 C 7.265625 -9.046875 7.109375 -9.375 6.796875 -9.5625 C 6.492188 -9.757812 6.023438 -9.859375 5.390625 -9.859375 L 4.109375 -9.859375 Z M 4.109375 -2.09375 L 5.625 -2.09375 C 7.101562 -2.09375 7.84375 -2.628906 7.84375 -3.703125 C 7.84375 -4.222656 7.660156 -4.597656 7.296875 -4.828125 C 6.929688 -5.054688 6.375 -5.171875 5.625 -5.171875 L 4.109375 -5.171875 Z M 4.109375 -2.09375 "/></g></g></g><g fill="#004aad" fill-opacity="1"><g transform="translate(207.720302, 224.293375)"><g><path d="M 1.40625 0 L 1.40625 -11.953125 L 5.71875 -11.953125 C 6.351562 -11.953125 6.945312 -11.890625 7.5 -11.765625 C 8.0625 -11.640625 8.546875 -11.429688 8.953125 -11.140625 C 9.367188 -10.859375 9.695312 -10.476562 9.9375 -10 C 10.1875 -9.53125 10.3125 -8.941406 10.3125 -8.234375 C 10.3125 -7.347656 10.117188 -6.617188 9.734375 -6.046875 C 9.359375 -5.484375 8.84375 -5.0625 8.1875 -4.78125 L 10.90625 0 L 7.875 0 L 5.59375 -4.3125 L 4.109375 -4.3125 L 4.109375 0 Z M 4.109375 -6.453125 L 5.5 -6.453125 C 6.207031 -6.453125 6.742188 -6.597656 7.109375 -6.890625 C 7.484375 -7.191406 7.671875 -7.640625 7.671875 -8.234375 C 7.671875 -8.816406 7.484375 -9.222656 7.109375 -9.453125 C 6.742188 -9.691406 6.207031 -9.8125 5.5 -9.8125 L 4.109375 -9.8125 Z M 4.109375 -6.453125 "/></g></g></g><g fill="#004aad" fill-opacity="1"><g transform="translate(224.243887, 224.293375)"><g><path d="M 1.40625 0 L 1.40625 -11.953125 L 4.109375 -11.953125 L 4.109375 0 Z M 1.40625 0 "/></g></g></g><g fill="#004aad" fill-opacity="1"><g transform="translate(235.05274, 224.293375)"><g><path d="M 1.40625 0 L 1.40625 -11.953125 L 4.78125 -11.953125 C 5.695312 -11.953125 6.519531 -11.832031 7.25 -11.59375 C 7.988281 -11.363281 8.617188 -11.007812 9.140625 -10.53125 C 9.671875 -10.050781 10.078125 -9.4375 10.359375 -8.6875 C 10.640625 -7.9375 10.78125 -7.050781 10.78125 -6.03125 C 10.78125 -5 10.640625 -4.101562 10.359375 -3.34375 C 10.078125 -2.59375 9.675781 -1.96875 9.15625 -1.46875 C 8.644531 -0.976562 8.03125 -0.609375 7.3125 -0.359375 C 6.601562 -0.117188 5.8125 0 4.9375 0 Z M 4.109375 -2.1875 L 4.625 -2.1875 C 5.132812 -2.1875 5.597656 -2.25 6.015625 -2.375 C 6.429688 -2.507812 6.785156 -2.726562 7.078125 -3.03125 C 7.367188 -3.332031 7.597656 -3.726562 7.765625 -4.21875 C 7.929688 -4.707031 8.015625 -5.3125 8.015625 -6.03125 C 8.015625 -6.738281 7.929688 -7.332031 7.765625 -7.8125 C 7.597656 -8.300781 7.367188 -8.6875 7.078125 -8.96875 C 6.785156 -9.257812 6.429688 -9.460938 6.015625 -9.578125 C 5.597656 -9.703125 5.132812 -9.765625 4.625 -9.765625 L 4.109375 -9.765625 Z M 4.109375 -2.1875 "/></g></g></g><g fill="#004aad" fill-opacity="1"><g transform="translate(251.979283, 224.293375)"><g><path d="M 6.6875 0.21875 C 5.875 0.21875 5.109375 0.0859375 4.390625 -0.171875 C 3.671875 -0.429688 3.046875 -0.816406 2.515625 -1.328125 C 1.992188 -1.847656 1.582031 -2.488281 1.28125 -3.25 C 0.988281 -4.019531 0.84375 -4.90625 0.84375 -5.90625 C 0.84375 -6.894531 0.992188 -7.773438 1.296875 -8.546875 C 1.609375 -9.328125 2.03125 -9.984375 2.5625 -10.515625 C 3.09375 -11.054688 3.710938 -11.46875 4.421875 -11.75 C 5.128906 -12.03125 5.878906 -12.171875 6.671875 -12.171875 C 7.535156 -12.171875 8.28125 -12.007812 8.90625 -11.6875 C 9.53125 -11.375 10.035156 -11.015625 10.421875 -10.609375 L 9.015625 -8.890625 C 8.710938 -9.160156 8.390625 -9.382812 8.046875 -9.5625 C 7.703125 -9.75 7.273438 -9.84375 6.765625 -9.84375 C 6.296875 -9.84375 5.867188 -9.753906 5.484375 -9.578125 C 5.097656 -9.398438 4.765625 -9.144531 4.484375 -8.8125 C 4.203125 -8.488281 3.984375 -8.085938 3.828125 -7.609375 C 3.679688 -7.128906 3.609375 -6.59375 3.609375 -6 C 3.609375 -4.757812 3.882812 -3.800781 4.4375 -3.125 C 5 -2.445312 5.84375 -2.109375 6.96875 -2.109375 C 7.207031 -2.109375 7.441406 -2.140625 7.671875 -2.203125 C 7.910156 -2.265625 8.101562 -2.351562 8.25 -2.46875 L 8.25 -4.53125 L 6.265625 -4.53125 L 6.265625 -6.71875 L 10.625 -6.71875 L 10.625 -1.234375 C 10.207031 -0.828125 9.65625 -0.484375 8.96875 -0.203125 C 8.289062 0.078125 7.53125 0.21875 6.6875 0.21875 Z M 6.6875 0.21875 "/></g></g></g><g fill="#004aad" fill-opacity="1"><g transform="translate(268.960781, 224.293375)"><g><path d="M 1.40625 0 L 1.40625 -11.953125 L 8.890625 -11.953125 L 8.890625 -9.671875 L 4.109375 -9.671875 L 4.109375 -7.28125 L 8.171875 -7.28125 L 8.171875 -5.015625 L 4.109375 -5.015625 L 4.109375 -2.265625 L 9.078125 -2.265625 L 9.078125 0 Z M 1.40625 0 "/></g></g></g><g fill="#004aad" fill-opacity="1"><g transform="translate(116.022368, 242.752338)"><g><path d="M 3.625 0 L 3.625 -9.375 L 0.4375 -9.375 L 0.4375 -11.578125 L 9.4375 -11.578125 L 9.4375 -9.375 L 6.25 -9.375 L 6.25 0 Z M 3.625 0 "/></g></g></g><g fill="#004aad" fill-opacity="1"><g transform="translate(131.872114, 242.752338)"><g><path d="M 6.078125 0.21875 C 5.296875 0.21875 4.582031 0.078125 3.9375 -0.203125 C 3.289062 -0.484375 2.734375 -0.882812 2.265625 -1.40625 C 1.804688 -1.925781 1.445312 -2.554688 1.1875 -3.296875 C 0.9375 -4.046875 0.8125 -4.894531 0.8125 -5.84375 C 0.8125 -6.789062 0.9375 -7.632812 1.1875 -8.375 C 1.445312 -9.113281 1.804688 -9.734375 2.265625 -10.234375 C 2.734375 -10.742188 3.289062 -11.128906 3.9375 -11.390625 C 4.582031 -11.660156 5.296875 -11.796875 6.078125 -11.796875 C 6.859375 -11.796875 7.570312 -11.660156 8.21875 -11.390625 C 8.863281 -11.128906 9.414062 -10.742188 9.875 -10.234375 C 10.34375 -9.722656 10.703125 -9.097656 10.953125 -8.359375 C 11.203125 -7.617188 11.328125 -6.78125 11.328125 -5.84375 C 11.328125 -4.894531 11.203125 -4.046875 10.953125 -3.296875 C 10.703125 -2.554688 10.34375 -1.925781 9.875 -1.40625 C 9.414062 -0.882812 8.863281 -0.484375 8.21875 -0.203125 C 7.570312 0.078125 6.859375 0.21875 6.078125 0.21875 Z M 6.078125 -2.046875 C 6.867188 -2.046875 7.492188 -2.382812 7.953125 -3.0625 C 8.421875 -3.75 8.65625 -4.675781 8.65625 -5.84375 C 8.65625 -7 8.421875 -7.90625 7.953125 -8.5625 C 7.492188 -9.21875 6.867188 -9.546875 6.078125 -9.546875 C 5.285156 -9.546875 4.65625 -9.21875 4.1875 -8.5625 C 3.726562 -7.90625 3.5 -7 3.5 -5.84375 C 3.5 -4.675781 3.726562 -3.75 4.1875 -3.0625 C 4.65625 -2.382812 5.285156 -2.046875 6.078125 -2.046875 Z M 6.078125 -2.046875 "/></g></g></g><g fill="#004aad" fill-opacity="1"><g transform="translate(149.995869, 242.752338)"><g><path d="M 2.390625 0 L 0.25 -11.578125 L 2.9375 -11.578125 L 3.734375 -6.171875 C 3.804688 -5.566406 3.882812 -4.957031 3.96875 -4.34375 C 4.050781 -3.726562 4.125 -3.113281 4.1875 -2.5 L 4.265625 -2.5 C 4.378906 -3.113281 4.492188 -3.726562 4.609375 -4.34375 C 4.722656 -4.957031 4.835938 -5.566406 4.953125 -6.171875 L 6.203125 -11.578125 L 8.421875 -11.578125 L 9.671875 -6.171875 C 9.785156 -5.578125 9.894531 -4.972656 10 -4.359375 C 10.113281 -3.753906 10.234375 -3.132812 10.359375 -2.5 L 10.421875 -2.5 C 10.503906 -3.132812 10.582031 -3.753906 10.65625 -4.359375 C 10.738281 -4.960938 10.820312 -5.566406 10.90625 -6.171875 L 11.703125 -11.578125 L 14.21875 -11.578125 L 12.15625 0 L 8.859375 0 L 7.734375 -5.265625 C 7.628906 -5.710938 7.539062 -6.160156 7.46875 -6.609375 C 7.394531 -7.066406 7.328125 -7.507812 7.265625 -7.9375 L 7.1875 -7.9375 C 7.125 -7.507812 7.050781 -7.066406 6.96875 -6.609375 C 6.894531 -6.160156 6.8125 -5.710938 6.71875 -5.265625 L 5.625 0 Z M 2.390625 0 "/></g></g></g><g fill="#004aad" fill-opacity="1"><g transform="translate(170.411406, 242.752338)"><g><path d="M 1.375 0 L 1.375 -11.578125 L 4.046875 -11.578125 L 7.078125 -5.828125 L 8.203125 -3.265625 L 8.28125 -3.265625 C 8.21875 -3.878906 8.144531 -4.566406 8.0625 -5.328125 C 7.988281 -6.085938 7.953125 -6.8125 7.953125 -7.5 L 7.953125 -11.578125 L 10.453125 -11.578125 L 10.453125 0 L 7.765625 0 L 4.75 -5.78125 L 3.609375 -8.296875 L 3.53125 -8.296875 C 3.59375 -7.660156 3.660156 -6.972656 3.734375 -6.234375 C 3.816406 -5.503906 3.859375 -4.796875 3.859375 -4.109375 L 3.859375 0 Z M 1.375 0 "/></g></g></g><g fill="#004aad" fill-opacity="1"><g transform="translate(188.197618, 242.752338)"><g/></g></g><g fill="#004aad" fill-opacity="1"><g transform="translate(197.722776, 242.752338)"><g><path d="M 3.625 0 L 3.625 -9.375 L 0.4375 -9.375 L 0.4375 -11.578125 L 9.4375 -11.578125 L 9.4375 -9.375 L 6.25 -9.375 L 6.25 0 Z M 3.625 0 "/></g></g></g><g fill="#004aad" fill-opacity="1"><g transform="translate(213.572522, 242.752338)"><g><path d="M 1.375 0 L 1.375 -11.578125 L 8.609375 -11.578125 L 8.609375 -9.375 L 3.984375 -9.375 L 3.984375 -7.046875 L 7.921875 -7.046875 L 7.921875 -4.875 L 3.984375 -4.875 L 3.984375 -2.203125 L 8.796875 -2.203125 L 8.796875 0 Z M 1.375 0 "/></g></g></g><g fill="#004aad" fill-opacity="1"><g transform="translate(229.280143, 242.752338)"><g><path d="M 4.09375 -5.859375 L 3.796875 -4.796875 L 6.265625 -4.796875 L 6 -5.859375 C 5.832031 -6.441406 5.671875 -7.054688 5.515625 -7.703125 C 5.367188 -8.359375 5.21875 -8.988281 5.0625 -9.59375 L 4.984375 -9.59375 C 4.847656 -8.976562 4.703125 -8.347656 4.546875 -7.703125 C 4.398438 -7.054688 4.25 -6.441406 4.09375 -5.859375 Z M -0.109375 0 L 3.515625 -11.578125 L 6.65625 -11.578125 L 10.28125 0 L 7.515625 0 L 6.796875 -2.75 L 3.265625 -2.75 L 2.5625 0 Z M -0.109375 0 "/></g></g></g><g fill="#004aad" fill-opacity="1"><g transform="translate(245.43191, 242.752338)"><g><path d="M 1.375 0 L 1.375 -11.578125 L 4.234375 -11.578125 L 6.09375 -6.4375 C 6.207031 -6.09375 6.316406 -5.738281 6.421875 -5.375 C 6.535156 -5.007812 6.648438 -4.648438 6.765625 -4.296875 L 6.84375 -4.296875 C 6.957031 -4.648438 7.0625 -5.007812 7.15625 -5.375 C 7.257812 -5.738281 7.375 -6.09375 7.5 -6.4375 L 9.328125 -11.578125 L 12.171875 -11.578125 L 12.171875 0 L 9.78125 0 L 9.78125 -4.25 C 9.78125 -4.53125 9.789062 -4.84375 9.8125 -5.1875 C 9.84375 -5.53125 9.875 -5.875 9.90625 -6.21875 C 9.945312 -6.570312 9.984375 -6.914062 10.015625 -7.25 C 10.054688 -7.59375 10.09375 -7.90625 10.125 -8.1875 L 10.0625 -8.1875 L 9.109375 -5.4375 L 7.46875 -1.015625 L 6.015625 -1.015625 L 4.375 -5.4375 L 3.453125 -8.1875 L 3.375 -8.1875 C 3.40625 -7.90625 3.4375 -7.59375 3.46875 -7.25 C 3.507812 -6.914062 3.546875 -6.570312 3.578125 -6.21875 C 3.617188 -5.875 3.648438 -5.53125 3.671875 -5.1875 C 3.703125 -4.84375 3.71875 -4.53125 3.71875 -4.25 L 3.71875 0 Z M 1.375 0 "/></g></g></g><g clip-path="url(#d279d4f441)"><path fill="#ffffff" d="M 232.742188 133.023438 C 232.742188 133.734375 232.671875 134.441406 232.535156 135.136719 C 232.394531 135.835938 232.191406 136.515625 231.917969 137.171875 C 231.644531 137.832031 231.3125 138.457031 230.914062 139.046875 C 230.519531 139.640625 230.070312 140.1875 229.566406 140.691406 C 229.0625 141.195312 228.515625 141.644531 227.921875 142.039062 C 227.332031 142.4375 226.707031 142.769531 226.046875 143.042969 C 225.390625 143.316406 224.710938 143.519531 224.011719 143.660156 C 223.316406 143.800781 222.609375 143.867188 221.898438 143.867188 C 221.183594 143.867188 220.480469 143.800781 219.78125 143.660156 C 219.082031 143.519531 218.40625 143.316406 217.746094 143.042969 C 217.089844 142.769531 216.464844 142.4375 215.871094 142.039062 C 215.28125 141.644531 214.730469 141.195312 214.226562 140.691406 C 213.722656 140.1875 213.273438 139.640625 212.878906 139.046875 C 212.484375 138.457031 212.148438 137.832031 211.875 137.171875 C 211.605469 136.515625 211.398438 135.835938 211.257812 135.136719 C 211.121094 134.441406 211.050781 133.734375 211.050781 133.023438 C 211.050781 132.308594 211.121094 131.605469 211.257812 130.90625 C 211.398438 130.207031 211.605469 129.53125 211.875 128.871094 C 212.148438 128.214844 212.484375 127.589844 212.878906 126.996094 C 213.273438 126.40625 213.722656 125.855469 214.226562 125.351562 C 214.730469 124.847656 215.28125 124.398438 215.871094 124.003906 C 216.464844 123.609375 217.089844 123.273438 217.746094 123.003906 C 218.40625 122.730469 219.082031 122.523438 219.78125 122.382812 C 220.480469 122.246094 221.183594 122.175781 221.898438 122.175781 C 222.609375 122.175781 223.316406 122.246094 224.011719 122.382812 C 224.710938 122.523438 225.390625 122.730469 226.046875 123.003906 C 226.707031 123.273438 227.332031 123.609375 227.921875 124.003906 C 228.515625 124.398438 229.0625 124.847656 229.566406 125.351562 C 230.070312 125.855469 230.519531 126.40625 230.914062 126.996094 C 231.3125 127.589844 231.644531 128.214844 231.917969 128.871094 C 232.191406 129.53125 232.394531 130.207031 232.535156 130.90625 C 232.671875 131.605469 232.742188 132.308594 232.742188 133.023438 Z M 232.742188 133.023438 " fill-opacity="1" fill-rule="nonzero"/></g><g clip-path="url(#ed4c292c6e)"><g mask="url(#a6d6d7ad26)"><g transform="matrix(1, 0, 0, 1, 212, 123)"><g clip-path="url(#bdc7732c4e)"><g clip-path="url(#1283dbda27)"><path fill="#5cb6c6" d="M 19.167969 10.558594 C 19.167969 11.167969 19.109375 11.769531 18.988281 12.367188 C 18.871094 12.964844 18.695312 13.542969 18.460938 14.105469 C 18.226562 14.667969 17.941406 15.203125 17.605469 15.707031 C 17.265625 16.214844 16.882812 16.683594 16.453125 17.113281 C 16.023438 17.542969 15.554688 17.925781 15.046875 18.265625 C 14.542969 18.605469 14.007812 18.890625 13.445312 19.121094 C 12.882812 19.355469 12.300781 19.53125 11.707031 19.648438 C 11.109375 19.769531 10.503906 19.828125 9.898438 19.828125 C 9.289062 19.828125 8.6875 19.769531 8.089844 19.648438 C 7.492188 19.53125 6.910156 19.355469 6.351562 19.121094 C 5.789062 18.890625 5.253906 18.605469 4.746094 18.265625 C 4.242188 17.925781 3.773438 17.542969 3.34375 17.113281 C 2.910156 16.683594 2.527344 16.214844 2.191406 15.707031 C 1.851562 15.203125 1.566406 14.667969 1.332031 14.105469 C 1.101562 13.542969 0.925781 12.964844 0.804688 12.367188 C 0.6875 11.769531 0.628906 11.167969 0.628906 10.558594 C 0.628906 9.949219 0.6875 9.347656 0.804688 8.75 C 0.925781 8.152344 1.101562 7.574219 1.332031 7.011719 C 1.566406 6.449219 1.851562 5.914062 2.191406 5.40625 C 2.527344 4.902344 2.910156 4.433594 3.34375 4.003906 C 3.773438 3.574219 4.242188 3.1875 4.746094 2.851562 C 5.253906 2.511719 5.789062 2.226562 6.351562 1.992188 C 6.910156 1.761719 7.492188 1.585938 8.089844 1.464844 C 8.6875 1.347656 9.289062 1.289062 9.898438 1.289062 C 10.503906 1.289062 11.109375 1.347656 11.707031 1.464844 C 12.300781 1.585938 12.882812 1.761719 13.445312 1.992188 C 14.007812 2.226562 14.542969 2.511719 15.046875 2.851562 C 15.554688 3.1875 16.023438 3.574219 16.453125 4.003906 C 16.882812 4.433594 17.265625 4.902344 17.605469 5.40625 C 17.941406 5.914062 18.226562 6.449219 18.460938 7.011719 C 18.695312 7.574219 18.871094 8.152344 18.988281 8.75 C 19.109375 9.347656 19.167969 9.949219 19.167969 10.558594 Z M 19.167969 10.558594 " fill-opacity="1" fill-rule="nonzero"/></g></g></g></g></g><path fill="#dd7631" d="M 230.804688 133.023438 C 230.804688 133.605469 230.746094 134.1875 230.632812 134.761719 C 230.519531 135.332031 230.347656 135.890625 230.125 136.429688 C 229.902344 136.972656 229.628906 137.484375 229.300781 137.96875 C 228.976562 138.457031 228.609375 138.90625 228.195312 139.320312 C 227.78125 139.734375 227.332031 140.101562 226.84375 140.425781 C 226.359375 140.753906 225.84375 141.027344 225.304688 141.25 C 224.765625 141.472656 224.207031 141.644531 223.632812 141.757812 C 223.0625 141.871094 222.480469 141.929688 221.898438 141.929688 C 221.3125 141.929688 220.734375 141.871094 220.160156 141.757812 C 219.585938 141.644531 219.027344 141.472656 218.488281 141.25 C 217.949219 141.027344 217.433594 140.753906 216.949219 140.425781 C 216.464844 140.101562 216.011719 139.734375 215.597656 139.320312 C 215.1875 138.90625 214.816406 138.457031 214.492188 137.96875 C 214.167969 137.484375 213.894531 136.972656 213.667969 136.429688 C 213.445312 135.890625 213.277344 135.332031 213.164062 134.761719 C 213.046875 134.1875 212.992188 133.605469 212.992188 133.023438 C 212.992188 132.4375 213.046875 131.859375 213.164062 131.285156 C 213.277344 130.710938 213.445312 130.15625 213.667969 129.613281 C 213.894531 129.074219 214.167969 128.5625 214.492188 128.074219 C 214.816406 127.589844 215.1875 127.136719 215.597656 126.726562 C 216.011719 126.3125 216.464844 125.941406 216.949219 125.617188 C 217.433594 125.292969 217.949219 125.019531 218.488281 124.792969 C 219.027344 124.570312 219.585938 124.402344 220.160156 124.289062 C 220.734375 124.171875 221.3125 124.117188 221.898438 124.117188 C 222.480469 124.117188 223.0625 124.171875 223.632812 124.289062 C 224.207031 124.402344 224.765625 124.570312 225.304688 124.792969 C 225.84375 125.019531 226.359375 125.292969 226.84375 125.617188 C 227.332031 125.941406 227.78125 126.3125 228.195312 126.726562 C 228.609375 127.136719 228.976562 127.589844 229.300781 128.074219 C 229.628906 128.5625 229.902344 129.074219 230.125 129.613281 C 230.347656 130.15625 230.519531 130.710938 230.632812 131.285156 C 230.746094 131.859375 230.804688 132.4375 230.804688 133.023438 Z M 230.804688 133.023438 " fill-opacity="1" fill-rule="nonzero"/><path fill="#13548f" d="M 213.6875 136.472656 C 213.792969 136.726562 213.914062 136.976562 214.042969 137.222656 C 214.179688 137.476562 214.328125 137.726562 214.492188 137.96875 C 214.652344 138.210938 214.828125 138.445312 215.011719 138.671875 C 215.199219 138.898438 215.394531 139.113281 215.597656 139.320312 C 215.804688 139.527344 216.023438 139.722656 216.246094 139.90625 C 216.472656 140.09375 216.707031 140.265625 216.949219 140.425781 C 217.191406 140.589844 217.441406 140.738281 217.699219 140.875 C 217.957031 141.015625 218.21875 141.140625 218.488281 141.25 C 218.757812 141.363281 219.03125 141.460938 219.3125 141.546875 C 219.589844 141.628906 219.875 141.699219 220.160156 141.757812 C 220.445312 141.8125 220.734375 141.855469 221.023438 141.886719 C 221.316406 141.914062 221.605469 141.929688 221.898438 141.929688 C 221.996094 141.929688 222.09375 141.925781 222.195312 141.921875 C 222.292969 141.921875 222.394531 141.914062 222.492188 141.910156 C 222.589844 141.902344 222.691406 141.894531 222.789062 141.882812 C 222.886719 141.875 222.984375 141.863281 223.085938 141.847656 C 223.183594 141.835938 223.28125 141.820312 223.378906 141.804688 C 223.476562 141.789062 223.574219 141.769531 223.671875 141.75 C 223.769531 141.730469 223.867188 141.710938 223.960938 141.6875 C 224.058594 141.664062 224.15625 141.636719 224.25 141.613281 C 224.347656 141.585938 224.441406 141.558594 224.535156 141.527344 C 224.628906 141.5 224.726562 141.46875 224.820312 141.4375 C 224.914062 141.402344 225.003906 141.371094 225.097656 141.332031 C 225.191406 141.296875 225.28125 141.261719 225.375 141.222656 C 225.464844 141.183594 225.554688 141.144531 225.644531 141.101562 C 225.734375 141.058594 225.824219 141.015625 225.914062 140.972656 C 226.003906 140.925781 226.089844 140.878906 226.175781 140.832031 C 226.265625 140.785156 226.351562 140.734375 226.4375 140.683594 C 226.519531 140.632812 226.605469 140.582031 226.691406 140.53125 C 226.773438 140.476562 226.855469 140.421875 226.9375 140.363281 C 227.019531 140.308594 227.101562 140.25 227.179688 140.191406 C 227.261719 140.132812 227.339844 140.074219 227.417969 140.011719 C 227.496094 139.949219 227.570312 139.886719 227.648438 139.824219 C 227.722656 139.757812 227.796875 139.695312 227.871094 139.628906 C 227.945312 139.5625 228.015625 139.492188 228.089844 139.425781 C 228.160156 139.355469 228.230469 139.285156 228.300781 139.214844 C 228.367188 139.144531 228.4375 139.070312 228.503906 138.996094 C 228.570312 138.921875 228.632812 138.847656 228.699219 138.773438 C 228.761719 138.695312 228.824219 138.621094 228.886719 138.542969 C 228.949219 138.464844 229.007812 138.386719 229.066406 138.304688 C 229.125 138.226562 229.183594 138.144531 229.238281 138.0625 C 229.296875 137.980469 229.351562 137.898438 229.402344 137.816406 C 229.457031 137.730469 229.507812 137.648438 229.558594 137.5625 C 229.609375 137.476562 229.660156 137.390625 229.707031 137.300781 C 229.753906 137.214844 229.800781 137.128906 229.847656 137.039062 C 229.890625 136.949219 229.933594 136.859375 229.976562 136.769531 C 230.019531 136.679688 230.058594 136.589844 230.097656 136.5 C 230.136719 136.40625 230.171875 136.316406 230.207031 136.222656 C 230.242188 136.128906 230.277344 136.039062 230.3125 135.945312 C 230.34375 135.851562 230.375 135.753906 230.402344 135.660156 C 230.433594 135.566406 230.460938 135.472656 230.488281 135.375 C 230.511719 135.28125 230.539062 135.183594 230.5625 135.085938 C 230.582031 134.992188 230.605469 134.894531 230.625 134.796875 C 230.644531 134.699219 230.664062 134.601562 230.679688 134.503906 C 230.695312 134.40625 230.710938 134.308594 230.722656 134.210938 C 230.738281 134.109375 230.75 134.011719 230.757812 133.914062 C 230.769531 133.816406 230.777344 133.714844 230.785156 133.617188 C 230.789062 133.519531 230.796875 133.417969 230.796875 133.320312 C 230.800781 133.222656 230.804688 133.121094 230.804688 133.023438 C 230.804688 132.921875 230.800781 132.824219 230.796875 132.726562 C 230.796875 132.625 230.789062 132.527344 230.785156 132.425781 C 230.777344 132.328125 230.769531 132.230469 230.757812 132.132812 C 230.75 132.03125 230.738281 131.933594 230.722656 131.835938 C 230.710938 131.738281 230.695312 131.640625 230.679688 131.542969 C 230.664062 131.441406 230.644531 131.347656 230.625 131.25 C 230.605469 131.152344 230.582031 131.054688 230.5625 130.957031 C 230.539062 130.863281 230.511719 130.765625 230.488281 130.667969 C 230.460938 130.574219 230.433594 130.480469 230.402344 130.382812 C 230.375 130.289062 230.34375 130.195312 230.3125 130.101562 C 230.277344 130.007812 230.242188 129.914062 230.207031 129.820312 C 230.171875 129.730469 230.136719 129.636719 230.097656 129.546875 C 230.058594 129.453125 230.019531 129.363281 229.976562 129.273438 C 229.933594 129.183594 229.890625 129.09375 229.847656 129.003906 C 229.800781 128.917969 229.753906 128.828125 229.707031 128.742188 C 229.660156 128.65625 229.609375 128.570312 229.558594 128.484375 C 229.507812 128.398438 229.457031 128.3125 229.402344 128.230469 C 229.351562 128.148438 229.296875 128.0625 229.238281 127.980469 C 229.183594 127.898438 229.125 127.820312 229.066406 127.738281 C 229.007812 127.660156 228.949219 127.582031 228.886719 127.503906 C 228.835938 127.441406 228.785156 127.378906 228.734375 127.316406 C 219.902344 129.035156 215.5625 133.671875 213.6875 136.472656 Z M 213.6875 136.472656 " fill-opacity="1" fill-rule="nonzero"/></svg>